<?xml version="1.0" encoding="UTF-8"?>
<svg version="1.1" viewBox="0 0 1088 1076" width="1280" height="1280" xmlns="http://www.w3.org/2000/svg">
<path transform="translate(532,107)" d="m0 0h22l35 2 32 4 31 6 30 8 30 10 26 11 25 12 17 9 23 14 20 14 16 12 13 11 11 9 7 7 2 1v2l4 2 12 12 7 8 13 14 11 14 12 16 18 27 10 17 12 22 9 19 11 27 12 36 6 24 6 30 4 32 1 15v61l-2 25-6 37-7 30-8 27-10 28-12 27-8 16-9 17-11 18-13 19-14 19-14 17-12 13-7 8h-2l-2 4-10 10-8 7-12 11-14 11-13 10-17 12-23 14-16 9-21 11-25 11-27 10-26 8-29 7-36 6-33 3h-58l-27-2-32-5-28-6-25-7-27-9-24-10-18-8-19-10-21-12-21-14-19-14-16-13-14-12-9-9-8-7-7-7-7-8-7-7-9-11-13-16-13-18-11-17-12-20-14-27-9-19-10-26-8-24-8-30-6-31-4-31-2-31v-30l2-32 4-30 5-26 7-28 12-36 10-25 14-29 12-22 13-20 13-19 11-14 13-16 13-14 7-8 14-14 8-7 10-9 10-8 18-14 30-20 22-13 21-11 20-9 31-12 29-9 29-7 35-6 31-3z" fill="#6689F4"/>
<path transform="translate(281,552)" d="m0 0h3l2 7 4 10 5 8 12 12 20 15 23 16 7 4h4l4-12 1-9v-10l-3-15-3-13v-7l2-6 5 1 9 6 6 9 14 7 20 14 11 9 10 9 7 7 10 16 6 15 4 13 5 24 2 14 2 10 4 29 35-30 8-10 7-14 6-15 6-8 8-5 4-2 8-2 11-4 3-1 2-5 9-20 8-13 9-10 7-8 13-10 8-4 3-1h10l6 3 4 5 1 3v9l-4 13-10 19-6 9-6 13-2 12 3 22v8l-3 9-7 8-13 12-4 8-2 12-1 31-3 16-2 7-12-1-64-12-2-2 3-5h2l3-9 10-19 3-7h2l2-5 7-12 1-3h2l2-5 14-22 8-11 7-10 13-18 11-14 12-16 11-14 7-9 1-2-4 2-15 20h-2l-2 5-12 15-10 14h-2l-2 5-9 12-10 14-6 9-7 11-6 9-12 20-8 14-5 10-1 4h-2l-3 9-4 8h-8l-20-4-3-3-2-8h-8l-15 2 2 73 8 1 4 2-1 3-3 1h-19l-74-10-54-8-11-3-4-7-6-13-2-4v-3l-34 7-18 4-15 3h-6v2h-9l1 8 8 19 8 16 7 13 9 10 12 5 24 5 31 3 47 1 3 2-9 3-29 7-39 9-12 3-1 3v21l32 3 89 10 253 27 64 7 6 1h13l16-8 41-21 18-10 16-8 27-14 36-19 10-6v3l-7 7-3 4h-2l-2 4-10 10-8 7-12 11-14 11-13 10-17 12-23 14-16 9-21 11-25 11-27 10-26 8-29 7-36 6-33 3h-58l-27-2-32-5-28-6-25-7-27-9-24-10-18-8-19-10-21-12-21-14-19-14-16-13-14-12-9-9-8-7-7-7-7-8-7-7-9-11-13-16-13-18-11-17-12-20-14-27-9-19-10-26-3-16-2-38v-23l2-20 4-17 7-16 7-10 9-10 7-7 10-8 5-2 5-4 13-6 7-1v-2l12-3 8-3 21-4 7-1 64-1z" fill="#465EDD"/>
<path transform="translate(938,416)" d="m0 0h49l4 1 12 36 6 24 6 30 4 32 1 15v61l-2 25-6 37-7 30-8 27-10 28-12 27-8 16-9 17-11 18-13 19-14 19-14 17-7 8-6 2-17 10-17 9-16 8-42 22-35 18-19 10-14 7h-13l-33-4-47-5-261-28-79-9-21-2-3-1-1-22 2-3 46-11 31-7 11-3-2-1-47-1-31-3-24-5-12-5-8-8-8-14-8-16-8-18-2-9 1-2h9v-2l17-3 11-3 20-4 19-4h6l8 18 4 8 11 3 54 8 74 10h19l3-1v-2l-11-3-1-2-1-38v-33l8-2 7-1h8l3 9v2l30 5 2-7 5-10h2l1-6 9-16 6-11 6-10 8-13 6-9 7-10 8-12 10-13 5-8 5-5 10-14 10-13 1-2h2l2-4 10-13 4-5h3l-2 5-6 7-10 13-13 17-14 18-9 13-12 16-4 7-4 5-4 7-8 13h-2l-1 5-8 13-1 2h-2l-3 9-11 21-2 5h-2l-2 5 6 2 38 7 64 12 8-1 3-1-1 14-2 19 2 5 3 1 13 1h23l3 6 2 10h-7l-13-3-20-3-6 1-39 9h-2l5 6v7l-11-2-25-8-1 1 12 8 7 7 3 6v8l-10 4-1 1h-10l-18-5-5-2h-5l10 5 16 6 1 1 13-3 10-4 7-3 6-6 2-13 33 2 36 3 2 1-1-15 11 2 54 1v-23l-1-11v-11l6-2 15-3 8-3 16-3 12-3 15-5-1-11-9-44-6-27-2-8v-5h2l3 9 6 25 6 27 7 30 5 18 4 22 3 15v15l-2 12 17-5 38-13 8-7h2l2-8v-12l-7-33v-4h-2l-1-4v-9l8-3 16-4 3-13 9-55 8-47 3-15 2-18 1-6h2l1-12 18-110v-13l-3-3-3-1-38 1-72 5h-8l-1-2 4-6 20-20 14-11 19-13 17-9 15-6 15-4z" fill="#CFEBFE"/>
<path transform="translate(913,484)" d="m0 0h32l3 3v13l-13 80-7 42h-2l-1 12-2 17-7 38-11 68-3 15-2 4-11 4-12 3v13h2l6 26 2 11v12l-3 8-10 8-41 14-9 3h-5v-8l1-7v-12l-2-13-2-7-3-17-6-21-11-48-6-28-3-12h-2l4 17 7 33 7 34 1 11-7 3-9 3-12 3-16 3-16 5-7 1-1 1h-5l2 23-1 22h-54l-11-3 1 7v8l-50-4-20-1-1 2-1 10-4 5-6 4-13 4-3 2-12 2v-2l-9-2-12-5-6-4v-1h6l7 3 16 4h10l7-3 3-1v-8l-5-8-8-7-9-6-1-2 10 2 21 7 7 1v-6l-4-4v-2l16-4 25-6 6-1 30 5 10 2-5-15h-23l-13-1-5-3-1-8 3-22 2-9 5-38 10-72 3-25 4-27 3-22 8-58 3-25 5-23 2-4 89-7 25-1 25-2 70-4z" fill="#313486"/>
<path transform="translate(169,710)" d="m0 0h2l5 24 10 37 12 42v2l18-2 1 7 8 19 8 16 7 13 9 10 12 5 24 5 31 3 47 1 3 2-9 3-29 7-39 9-12 3-1 3v21l32 3 89 10 253 27 64 7 6 1h13l16-8 41-21 18-10 16-8 27-14 36-19 10-6v3l-7 7-3 4h-2l-2 4-10 10-8 7-12 11-14 11-13 10-17 12-23 14-16 9-21 11-25 11-27 10-26 8-29 7-36 6-33 3h-58l-27-2-32-5-28-6-25-7-27-9-24-10-18-8-19-10-21-12-21-14-19-14-16-13-14-12-9-9-8-7-7-7-7-8-7-7-9-11-10-12v-135l1-31z" fill="#6689F5"/>
<path transform="translate(281,552)" d="m0 0h3l2 7 4 10 5 8 12 12 20 15 23 16 5 4h-8l-5 2-13 17-8 11-4-1-5-5-18-20-13-18-10-19-4-11v-4l-11 5-20 9-16 9-12 8-10 8-7 8-5 5-6 9-5 12 1-1 8-12 7-6 4-2h12l14 3 15 6 11 7 10 8 10 12 4 5 9 19 7 22 7 29 7 38 2 14-4 4-26 6-20 4-15 4-13 1v2l-19 3h-8l-6-19-13-47-5-18-3-17v-4l-2 1-1 31v134l-5-5-10-13-10-15-15-25-14-27-9-19-10-26-3-16-2-38v-23l2-20 4-17 7-16 7-10 9-10 7-7 10-8 5-2 5-4 13-6 7-1v-2l12-3 8-3 21-4 7-1 64-1z" fill="#313486"/>
<path transform="translate(866,265)" d="m0 0h21l13 1 7 8 13 16 13 18 16 24 10 17 12 22 9 19 10 24v3h-52l-21 4-16 6-19 9-12 8-11 8-8 6-10 3-9 1h-57l-80-1-14-1 1-3 16-11 7-5 17-4 17-7 13-8 4-2v-2l5-4 10-13 7-13 3-10 1-8v-9l-2-14-7-16-9-12-10-10-12-8-19-8-12-3-6-1h-35l-18 4-5 2-11-1h-45l-1-1-1-14 1-5 31-2h13l53-2 39-1 63-3z" fill="#6689F5"/>
<path transform="translate(485,269)" d="m0 0h29l2 2 1 152-2 3-44 2-28 1-5 5-3 8-4 1-11-3-1-5 2-2 13 1-2-13-5-21-3-7-7 1-15 5-19 3-9 1-43 2-1 1-1 13-1 2-3 21-1 13 2 13-2 11-5 9-8 7-9 4h-2l-3 11-6 18-2 1-11-8-8-9-9-13-9-15-6-13-3-9-1-7v-15l2-10 5-12 10-11h2v-5l-5-8-2-8v-12l4-13 7-11 7-9 9-9 14-9 18-6 15-3 9-1h11l19 2 19 6v-48l1-1 29-1 47-1z" fill="#313486"/>
<path transform="translate(633,596)" d="m0 0h3l-2 5-6 7-10 13-13 17-14 18-9 13-12 16-4 7-4 5-4 7-8 13h-2l-1 5-8 13-1 2h-2l-3 9-11 21-2 5h-2l-2 5 6 2 38 7 64 12 8-1 3-1-1 14-2 19 2 5 3 1 13 1h23l3 6 2 10h-7l-13-3-20-3-6 1-39 9h-2l5 6v7l-11-2-25-8-1 1 12 8 7 7 3 6v8l-10 4-1 1h-10l-18-5-5-2h-5l10 5 16 6-2 4-3 2-5 1h-27l-29-3-33-5-74-2-19-1-3-1-47-1-31-3-24-5-12-5-8-8-8-14-8-16-8-18-2-9 1-2h9v-2l17-3 11-3 20-4 19-4h6l8 18 4 8 11 3 54 8 74 10h19l3-1v-2l-11-3-1-2-1-38v-33l8-2 7-1h8l3 9v2l30 5 2-7 5-10h2l1-6 9-16 6-11 6-10 8-13 6-9 7-10 8-12 10-13 5-8 5-5 10-14 10-13 1-2h2l2-4 10-13z" fill="#FCB6C7"/>
<path transform="translate(514,244)" d="m0 0h26l1 2-1 203-36 2-38 1-29 2-2 6-1 6-4-5h-6l-2 2-1 8 2 3h6l3-3 2-3 1 1-1 15-1 5-1 20-3 9h-4l-1-2h-9l-5 3-1 2v11l9 3 2 1-2 5-9 8-11 6-10 3-13 1-9-6h-4l-1 5v7l5 21 1 7v10l-2 13-4 9-6-1-15-10-17-12-13-10-10-9-8-8-6-12-2-5v-13l5-15 3-7 4-13 4-11 14-7 6-7 4-10 1-9-2-11 2-22 2-12 1-2 1-13 2-2 43-2 24-3 17-5 4-2h5l4 8 5 21 1 13-6 1-7-1-1 5 13 3h2l1-5 4-7 3-2 55-2 17-1 1-3-1-151-1-1h-29l-22 1-47 1-29 1-1 48-7-1-16-5-2-5v-57l1-2 21-2 40-2 54-2z" fill="#FBB6C7"/>
<path transform="translate(938,416)" d="m0 0h49l4 1 12 36 6 24 6 30 4 32 1 15v61l-2 25-6 37-7 30-8 27-7 20h-1l-1-6-1-79-1-22-36-3-18-1v-2h-6v-12l17-104 4-25v-13l-3-3-3-1-38 1-72 5h-8l-1-2 4-6 20-20 14-11 19-13 17-9 15-6 15-4z" fill="#CFEBFE"/>
<path transform="translate(670,288)" d="m0 0h35l15 3 15 6 10 5 11 8 11 11 9 14 5 12 2 14v9l-2 12-5 12-7 11-11 13h-2v2l-10 7-16 8-11 4-14 3-18 13-19 13-11 7h-6l1-8 14-22 2-4-18-4-16-8-10-6-10-9-7-8-8-14-4-11-1-7v-22l2-9 7-14 8-10 10-10 15-10 11-5 13-4z" fill="#FCFCFD"/>
<path transform="translate(632,573)" d="m0 0h10l6 3 4 5 1 3v9l-4 13-10 19-6 9-6 13-2 12 3 22v8l-3 9-7 8-13 12-4 8-2 12-1 31-3 16-2 7-12-1-64-12-2-2 3-5h2l3-9 10-19 3-7h2l2-5 7-12 1-3h2l2-5 14-22 8-11 7-10 13-18 11-14 12-16 11-14 7-9 1-2-4 2-15 20h-2l-2 5-12 15-10 14h-2l-2 5-9 12-10 14-6 9-7 11-6 9-12 20-8 14-5 10-1 4h-2l-3 9-4 8h-8l-20-4-3-3-2-8h-8l-7 1h-8l-2-62-3-37-4-31-7-14-9-12v-2h-2v-2l4 2 9 9 10 16 6 15 4 13 5 24 2 14 2 10 4 29 35-30 8-10 7-14 6-15 6-8 8-5 4-2 8-2 11-4 3-1 2-5 9-20 8-13 9-10 7-8 13-10 8-4z" fill="#313487"/>
<path transform="translate(169,710)" d="m0 0h2l5 24 10 37 12 42v2l18-2 1 7 8 19 8 16 7 13 9 10 12 5 24 5 31 3 47 1 3 2-9 3-29 7-39 9-12 3-1 3v21l32 3 17 2 4 2 11 1 1 33v23l-1 10-6-1-19-10-21-12-21-14-19-14-16-13-14-12-9-9-8-7-7-7-7-8-7-7-9-11-10-12v-135l1-31z" fill="#465FDE"/>
<path transform="translate(485,269)" d="m0 0h29l2 2 1 152-2 3-44 2-29 1 1-7 3-8 1-6v-12l-3-10-4-7 1-5 2-9-2-12-4-10-7-8-10-2h-10l-12-3v-2l-6-1-6-4v-50l1-1 29-1 47-1z" fill="#6588F4"/>
<path transform="translate(926,622)" d="m0 0h1l-1 19h6v2h18l36 3 1 1 1 22 1 88-13 30-8 16-10 19-7 12-10-1-12-1-39-1-3-1-1 3-7-33v-4h-2l-1-4v-9l8-3 16-4 3-13 9-55 8-47 3-15 2-18z" fill="#AED7FD"/>
<path transform="translate(514,244)" d="m0 0h26l1 2-1 203-36 2-38 1-14 1h-17l-1-2v-9l4-9 5-5 55-2 17-1 1-3-1-151-1-1h-29l-22 1-47 1-29 1-1 48-7-1-16-5-2-5v-57l1-2 21-2 40-2 54-2z" fill="#CBB43A"/>
<path transform="translate(268,801)" d="m0 0 4 1h-3l12 40 1 4 9 2 26 5 75 12 27 4 19 3 19 2 37 6 15 3 17 5 10 1 9 4 13 5-2 4-3 2-5 1h-27l-29-3-33-5-74-2-19-1-3-1-47-1-31-3-24-5-12-5-8-8-8-14-8-16-8-18-2-9 1-2h9v-2l17-3 11-3z" fill="#DFA1B8"/>
<path transform="translate(633,596)" d="m0 0h3l-2 5-6 7-10 13-13 17-14 18-9 13-12 16-4 7-4 5-4 7-8 13h-2l-1 5-8 13-1 2h-2l-3 9-11 21-2 5h-2l-2 5 6 2 38 7 64 12 8-1 3-1-1 14-2 19 2 5 3 1 13 1h23l3 6 2 10h-7l-13-3-29-4-36-1h-25l-9-3-19-4-19-2h-26l-18 5-5 2-1-2-11-3-1-2-1-38v-33l8-2 7-1h8l3 9v2l30 5 2-7 5-10h2l1-6 9-16 6-11 6-10 8-13 6-9 7-10 8-12 10-13 5-8 5-5 10-14 10-13 1-2h2l2-4 10-13z" fill="#FCB6C7"/>
<path transform="translate(337,313)" d="m0 0h11l19 2 19 6v5l-11-1h-18l-16 6-6 3-8 6-2 1-2 5-5 4-7 8-5 7-1 6-9 27-4 26-1 13-5 5-5 4-5 7-3 9v12l5 12 7 7 6 3 6 2 2 1-1 8-4 11-3 10-2 1-11-8-8-9-9-13-9-15-6-13-3-9-1-7v-15l2-10 5-12 10-11h2v-5l-5-8-2-8v-12l4-13 7-11 7-9 9-9 14-9 18-6 15-3z" fill="#313488"/>
<path transform="translate(866,265)" d="m0 0h21l13 1 7 8 7 9-1 3-20 1-28 1-14 1-37 1-58 1h-10l-11 1h-11l-6-2-13-1h-35l-18 4-5 2-11-1h-45l-1-1-1-14 1-5 31-2h13l53-2 39-1 63-3z" fill="#5171E7"/>
<path transform="translate(690,499)" d="m0 0h14v1h-6l-2 11-4 25-8 58-6 43-5 36-5 38-10 72-5 35v16l9 2v1h-12l-13-1-5-3-1-8 3-22 2-9 5-38 10-72 3-25 4-27 3-22 8-58 3-25 5-23 2-4z" fill="#3E4ABD"/>
<path transform="translate(785,705)" d="m0 0h2l3 9 6 25 6 27 7 30 5 18 4 22 3 15v15l-2 12 2 1-15 5-5 1h-18l-20-2-4-1v-20l-8 2-24 2h-25l-11-1v-1h41v-23l-1-11v-11l6-2 15-3 8-3 16-3 12-3 15-5-1-11-9-44-6-27-2-8z" fill="#5272E7"/>
<path transform="translate(349,403)" d="m0 0h14v1l-11 2-2 7-3 17-1 4-3 19-2 24v32l2 19 4 13 5 10-6 7-16 12-11 9-4 1-1 3-7-1-5-4-4-1v-2l-2 1-1 2-4-5-5-10-2-5v-13l5-15 3-7 4-13 4-11 14-7 6-7 4-10 1-9-2-11 2-22 2-12 1-2 1-13 2-2z" fill="#DEA0B8"/>
<path transform="translate(816,224)" d="m0 0h41l12 11 3 2v2l4 2v3l-38 2-53 2-46 2-79 2h-13l-23 1-26 1-7-1-1-4v-14l1-2 42-2 66-3 34-2 65-1z" fill="#5171E7"/>
<path transform="translate(926,622)" d="m0 0h1l-1 19h6v2h18l36 3 1 1 1 22 1 88-13 30-8 16-10 19-2 3h-2l-1-3v-161l-31-2-1 2 3-27z" fill="#6689F5"/>
<path transform="translate(596,874)" d="m0 0h1l1 5 59 6 12 2 1 2v7l-9 4-25 11-13 6-25 10-4 1h-18l-15-2-25-2-13-2-23-2-14-2-27-2-42-5-4-1 1-4 23-8 1-1h29l32 5 22 2h27l7-2 4-3 13-3 10-4 7-3 6-6z" fill="#B0D8FD"/>
<path transform="translate(717,799)" d="m0 0 4 1 3 1 4 10 1 9h2l2 22-1 22h-54l-11-3 1 7v8l-50-4-20-1-1 2-1 10-4 5-6 4-13 4-3 2-12 2v-2l-9-2-12-5-6-4v-1h6l7 3 16 4h10l7-3 3-1v-8l-5-8-8-7-9-6-1-2 10 2 21 7 7 1v-6l-4-4v-2l16-4 25-6 6-1 30 5 10 2-5-15-6-1 4-1-3-12-4-10v-5l6 2 21 12 6 4 6 1 2-4 6-18 1-2h3z" fill="#5171E7"/>
<path transform="translate(459,797)" d="m0 0 12 4 28 5 16 3 11 1 10 2 26 3 10 1 33 3 25 2 2-1v9l2 5 3 1 13 1h23l3 6 2 10h-7l-13-3-29-4-36-1h-25l-9-3-19-4-19-2h-26l-18 5-5 2-1-2-11-3-1-2z" fill="#E0A1B8"/>
<path transform="translate(386,323)" d="m0 0 12 5v1l-12 1-7 2-13 2h-5l-1 3-7 4-5 4-10 4-6 5-1 2h-2l-1 4-7 10-6 15-6 23-4 23v6l12 8 5 3 2-2v9l2 13-2 11-5 9-8 7-9 4h-2l-1 2v-2l-11-3-10-9-5-10-1-3v-12l4-11 5-6 8-6 1-2 2-22 3-17 10-30v-5l5-5 4-5 9-9 2-4 9-6 5-3 12-5 8-2h16l11 2z" fill="#3E4ABD"/>
<path transform="translate(771,184)" d="m0 0h33l12 8 13 9v2l-10 1h-11l-6 1h-12l-51 3-21 1-34 1h-12l-50 2-26 1-5-1-1-9 1-9 4-1 76-4 86-4z" fill="#5171E7"/>
<path transform="translate(628,676)" d="m0 0h23v15l-11 79-4 30-2-3-5 2-11-1-25-5v-6l3-10 1-8 1-31 2-12 5-9 17-16 4-7z" fill="#6588F4"/>
<path transform="translate(921,868)" d="m0 0 4 1-2 5-13 16-9 11-4 2-32 18-16 8-29 15-19 10-35 18-19 10-14 7h-13l-6-1v-1l18 1v-22l3-5 21-10 19-10 24-12 46-22 17-9 23-11 19-10 10-5z" fill="#B0D9FE"/>
<path transform="translate(758,860)" d="m0 0 2 2v9l-3 24-5 38-1 3-11 4-11 2h-16l-2-6-4-18v-4h-2l-5-28-3-19-2-2h32l24-2 7-1z" fill="#B0D9FE"/>
<path transform="translate(795,395)" d="m0 0h140l2 2v18l-5 2-31 1-91 1-35-1-8-1h-6l1-5 7-8 4-6 5-2h10z" fill="#5171E7"/>
<path transform="translate(914,284)" d="m0 0 5 5 12 16 1 3-3 1-17-1h-36l-59 1-33 2-10 1h-9v2l-5 1-10-9-11-6-16-7-12-3v-1h7l7 2h15l13-1h18l49-1 31-1 22-1 25-1 15-1z" fill="#6689F5"/>
<path transform="translate(876,307)" d="m0 0h37l20 1 4 6v10h-2v2l-12 3-7 1-68 2-64 1-7-1-5-2-8-11-3-3v-2h4v-2l19-2 33-2z" fill="#5171E7"/>
<path transform="translate(590,482)" d="m0 0h50l181 1 2 1v4l25-1 55-4 38-1 3 2-31 1-25 2-85 5-14 1-33 2-77 6-2 6-2-4h-52l-32-1-1-1z" fill="#5171E7"/>
<path transform="translate(897,902)" d="m0 0v3l-7 7-3 4h-2l-2 4-10 10-8 7-12 11-14 11-13 10-17 12-23 14-16 9-21 11h-3v-2l-3 1v-10l3-15 4-5 5-5 18-10 19-9 14-8 11-6h2l1-3 31-16 36-19z" fill="#5272E7"/>
<path transform="translate(719,438)" d="m0 0h6l2 1h138l6 1-5 7-11 8-4 3-10 3-9 1h-57l-80-1-14-1 1-3 16-11 7-5z" fill="#5171E7"/>
<path transform="translate(825,351)" d="m0 0h107l3 1 1 2v18l-3 1-63 2h-85l-2-3v-16l3-2 13-2z" fill="#5171E7"/>
<path transform="translate(433,689)" d="m0 0h9l1 1 1 8v59l-2 7-16 5-17 4h-5l-1-1-1-9v-63l8-5 7-2 2 1v10l7-1 2-11z" fill="#CBB43A"/>
<path transform="translate(666,566)" d="m0 0h1v9l-5 35-5 36-2 16-3 22h-1v-8l-5 1-18-1v5h-1l-3-23 2-11 8-16 9-15 7-15 2-8v-9l-3-6-4-3-3-1h-10l-9 4-9 6-4 4h-2l-1 2v-2h-16l-1-2v-18l1-1h71z" fill="#5070E6"/>
<path transform="translate(667,861)" d="m0 0 11 2 13 1 7 3 6 37 7 34v4h-11l-23-4-2-6-2-21-4-31-2-12z" fill="#FDFDFE"/>
<path transform="translate(803,802)" d="m0 0 2 2 5 21 5 23-1 5-21-2h-9l-24 7-9-2v-4l26-7 8-4-1-4-22-2-6-1 1-8 7-16 21-4 8-3z" fill="#CDE9FE"/>
<path transform="translate(362,552)" d="m0 0 5 1 9 6 8 13 5 18 4 22 3 23 1 15-5-2-12-12-10-7-9-3 3-10 2-13v-10l-3-15-3-13v-7z" fill="#313487"/>
<path transform="translate(591,524)" d="m0 0h82l-3 28-1 7h-1v-8l1-5-3 1-29-1-44-1-3-1v-19z" fill="#5070E6"/>
<path transform="translate(785,705)" d="m0 0h2l3 9 6 25 6 27 7 30 5 18 4 22 3 15v15l-2 12 2 1-15 5-5 1h-18l-1-1-17-2-4-2 1-4 10-1 6-5 8-2 6-9h-2l3-6 11 1 13-1-4-17-1-9-3-9-2-17-4-1-1-11-9-44-6-27-2-8z" fill="#465FDD"/>
<path transform="translate(717,799)" d="m0 0 4 1 3 1 4 10 1 9h2l2 22-1 22h-33v-16l2-16 2-7 2-2 6-18 1-2h3z" fill="#3E4ABD"/>
<path transform="translate(656,439)" d="m0 0 12 1v4l-7 10-4 7h-17l-49-1-1-1v-19h65z" fill="#5171E7"/>
<path transform="translate(664,808)" d="m0 0 6 2 21 12 6 4 6 2-2 11-2 25h-21l-8-2-1-6 3-2h7l-3-8-3-9-6-1 4-1-3-12-4-10z" fill="#465FDD"/>
<path transform="translate(635,632)" d="m0 0h17l5 1-1 21-3 21-1 9h-1v-8l-5 1-18-1v5h-1l-3-23 2-11 6-13z" fill="#6588F4"/>
<path transform="translate(170,879)" d="m0 0 7 1 7 8 5 4 4 5 1 4 4 2 4 4v2l4 2v2l4 2v2l4 2v2l4 2v2h2v2h2l3 4v2h2v2l4 2v2l4 2 1 2 9 5 5 4 5 5 1 3 4 1 2 2 5 2v2l8 4 1 2 8 4 5 5 5 2 4 3 5 4 6 3 6 2 3 3 3 1v2l5 2 1 2 8 2 3 3 1-7h1v10l-6-1-19-10-21-12-21-14-19-14-16-13-14-12-9-9-8-7-7-7-7-8-7-7-9-11-7-9z" fill="#5474E8"/>
<path transform="translate(557,858)" d="m0 0 10 2 21 7 9 2 1-3 5 1 16 1 37 3 11 1 1 4-50-4-20-1-1 2-1 10-4 5-6 4-13 4-3 2-12 2v-2l-9-2-12-5-6-4v-1h6l7 3 16 4h10l7-3 3-1v-8l-5-8-8-7-9-6z" fill="#34398E"/>
<path transform="translate(801,801)" d="m0 0h6l2 7 2 15 2 4 2 14 2 8v4l-10 2h-9l-5-2-3 6h2l-2 5-4 5-9 3-5 4-10 1v3l11 2 9 1v1h-10l-13-2v-20l-8 1 2-2 6-2 1-2 24-7h9l21 2-1-9-8-36-2-4h-6z" fill="#5272E8"/>
<path transform="translate(361,335)" d="m0 0h7l9 7 2 3-1 4-5 4-22 10-21 8h-1v-5l8-11 12-12 8-6z" fill="#CAB439"/>
<path transform="translate(597,870)" d="m0 0 33 2 36 3 2 1 1-2 2 12v8h-1l-1-7-12-1-59-6-2-7z" fill="#C8E5FE"/>
<path transform="translate(785,705)" d="m0 0h2l3 9 6 25 6 27 7 30 5 18 4 22 3 15v15l-2 12 2 1-9 3h-3l2-4 1-4h2l1-4 1-7v-14l-3-13-1-9-3-9-2-17-4-1-1-11-9-44-6-27-2-8z" fill="#3E4ABD"/>
<path transform="translate(924,634)" d="m0 0h1v9l48 3 4 2v2h-2l-1 3-13 4-4 2h-34l-2 2z" fill="#5171E7"/>
<path transform="translate(633,596)" d="m0 0h3l-2 5-6 7-10 13-13 17-14 18-9 13-12 16-4 7-4 5-4 7-8 13h-2l-1 5-8 13-1 2h-2l-3 9-11 21-2 5h-2l-2 5h-2l2-7 5-10h2l1-6 9-16 6-11 6-10 8-13 6-9 7-10 8-12 10-13 5-8 5-5 10-14 10-13 1-2h2l2-4 10-13z" fill="#A4C4FA"/>
<path transform="translate(681,351)" d="m0 0h10l6 4 4 6 1 5-3 7-6 5-2 1h-7l-6-3-5-6-1-9 4-6z" fill="#DFBE47"/>
<path transform="translate(727,351)" d="m0 0h10l6 4 4 6v9l-6 7-4 2h-8l-8-6-2-4v-9l4-6z" fill="#DFBE47"/>
<path transform="translate(635,351)" d="m0 0h10l6 4 4 7v8l-6 7-5 2h-7l-6-4-3-3-1-3v-9l3-5z" fill="#DEBE47"/>
<path transform="translate(654,654)" d="m0 0 1 4-2 17-1 9h-1v-8l-5 1-18-1v5h-1l-3-23 1-3h11l18 1z" fill="#5070E6"/>
<path transform="translate(976,734)" d="m0 0 6 1 1 3v20l-1 2-13 2-7-2-1-10 1-12 7-3z" fill="#5171E7"/>
<path transform="translate(320,343)" d="m0 0 2 2-6 8-5 5-4 5-16 9-13 9-5 1-1-5 4-6 8-7 18-12 12-7z" fill="#CAB439"/>
<path transform="translate(506,267)" d="m0 0h8l3 2 1 30v127l-4 2-16-1v-1l17-1 1-3-1-151-1-1h-29l-22 1h-46v-1l57-2z" fill="#E0B763"/>
<path transform="translate(572,843)" d="m0 0h21l36 1 5 1-2 2-39 9h-5l-16-12z" fill="#CCE9FE"/>
<path transform="translate(433,491)" d="m0 0 2 2 1 3v18l-5 10-9 11h-7l-6-3-1-2v-9l4-5 3-1h9l1 3h6l1-7z" fill="#404EC1"/>
<path transform="translate(646,610)" d="m0 0 1 2h13l1-2-1 13-3 23h-1l1-13h-22l-2 1 2-5 8-13z" fill="#5070E6"/>
<path transform="translate(334,310)" d="m0 0h7l3 1 13 1 6 2-3 1-12-1h-11l-20 3-17 5-12 6-10 8-8 8-10 15-4 10-1 5v12l3 10 4 6-1 5-7 6-5 7-3 7-1-3 4-8 7-9h2l-1-7-3-6-2-16 2-11 6-15 2-4h2l2-5 6-5 5-5 12-10 7-3 12-5 9-2 3-1z" fill="#5171E7"/>
<path transform="translate(601,398)" d="m0 0h2l9 13 4 4v2l-8 1h-16l-1-1-1-17 1-1h8z" fill="#5172E7"/>
<path transform="translate(968,773)" d="m0 0h6v2l4 1 1 4-8 18-4 6h-2l-3-9v-11l3-8z" fill="#32378C"/>
<path transform="translate(169,710)" d="m0 0h2l3 15v5l-2-4-2-6v152l-2 4-1-3v-131l1-31z" fill="#3E4ABD"/>
<path transform="translate(429,734)" d="m0 0 5 1-1 20-11 4h-4l1-21 7-3z" fill="#313487"/>
<path transform="translate(590,316)" d="m0 0h22l-1 4-8 11-3 5-8-1-2-4z" fill="#5272E7"/>
<path transform="translate(279,888)" d="m0 0 15 1 22 2 47 1 3 2-9 3-21 5-3-1 1-2 1-6h-31l-25-3z" fill="#6689F5"/>
<path transform="translate(396,516)" d="m0 0h16l-3 5v10l-3 3h-6l-6-4-3-5-2-5v-3z" fill="#E0A1B8"/>
<path transform="translate(653,589)" d="m0 0h9l1 1v14l-1 6h-2v2h-13l1-6 4-13z" fill="#6386F3"/>
<path transform="translate(259,579)" d="m0 0 2 1-15 7-16 8-14 8-12 9-5 5h-2l-1 3-5 5-3 5 10-4 12 1 8 2v1l-11-1h-12l-9 6-7 10-4 7-1-3 5-12 6-9 4-5h2l2-4 8-8 16-11 10-6 16-8 13-6z" fill="#3E4ABD"/>
<path transform="translate(223,552)" d="m0 0h42l11 1 1 2-63 1-24 4-11 3-4 2-9 1 2-2 17-5 9-3z" fill="#4A63DA"/>
<path transform="translate(597,866)" d="m0 0 7 1 15 1 37 3 11 1 1 4-50-4-20-1-2-2z" fill="#323689"/>
<path transform="translate(753,813)" d="m0 0h6l-5 4-8 7-8 8h-2l-1 4-2 1-1-12-1-6 6-2 15-3z" fill="#EEF5FD"/>
<path transform="translate(457,762)" d="m0 0 3 2h-2l2 73 8 1 4 2-1 3-3 1h-19v-1h9l-2-13h-2l1-4 1-1z" fill="#6689F5"/>
<path transform="translate(545,717)" d="m0 0 3 3-10 17h-2l-3 9-11 21-2 5h-2l-2 5h-2l2-7 5-10h2l1-6 9-16 6-11z" fill="#A7C6FA"/>
<path transform="translate(102,616)" d="m0 0 1 2-6 14-4 17-2 23v20l2 38 1 10-2-2-2-10v-11l-1-11v-48l5-27 7-14z" fill="#5070E6"/>
<path transform="translate(388,429)" d="m0 0 3 1 1 5-3 2-13 4-5 3h-5l-1-5 7-5z" fill="#38419B"/>
<path transform="translate(334,310)" d="m0 0h7l3 1 13 1 6 2-3 1-12-1h-11l-20 3-17 5-7 2 4-5 14-5 14-3z" fill="#5070E6"/>
<path transform="translate(420,680)" d="m0 0h6l2 13-1 10-1 1h-7v-23z" fill="#323689"/>
<path transform="translate(781,837)" d="m0 0 5 1-1 4-8 4-23 6h-5v-3l16-5 10-3z" fill="#4251BD"/>
<path transform="translate(986,646)" d="m0 0h2l1 5 1 86 3 6-1 5-2 6h-1l-1-6-1-79z" fill="#B0D9FE"/>
<path transform="translate(531,886)" d="m0 0h6l7 3 16 4 7 1v1l5 1-2 2-12 2v-2l-9-2-12-5-6-4z" fill="#404EAC"/>
<path transform="translate(576,673)" d="m0 0 1 3-7 9-4 7-4 5-4 7-8 13h-2l-1 2-1-3 7-12 6-9 7-10 6-9z" fill="#ADCDFB"/>
<path transform="translate(597,864)" d="m0 0h23l15 1 5 2 6 1v2h-11l-24-2h-12l-1-1-2 2z" fill="#455CDA"/>
<path transform="translate(381,457)" d="m0 0 6 1 3 5-1 6-5 4-4-1-3-4v-6l2-4z" fill="#373F98"/>
<path transform="translate(424,460)" d="m0 0h6l2 4v8l-3 3h-6l-3-4 1-8z" fill="#33388D"/>
<path transform="translate(401,699)" d="m0 0 2 1v63l1 9 9-1 9-2 4 1-15 4h-8l-6-6 1-4 2-1z" fill="#5B7DEE"/>
<path transform="translate(335,894)" d="m0 0h28l-1 2-26 6-3-1 1-2z" fill="#5474E9"/>
<path transform="translate(634,845)" d="m0 0 16 2 18 3 3 1h8v3l-14-2-3-1h-8v2l-10-1-12-6z" fill="#6588F4"/>
<path transform="translate(421,433)" d="m0 0 14 1 1 5-1 3-4 1-11-3-1-5z" fill="#384099"/>
<path transform="translate(633,596)" d="m0 0h3l-2 5-6 7-10 13-5 2 2-5h2l2-4 10-13z" fill="#A4C6FB"/>
<path transform="translate(457,762)" d="m0 0 3 2h-2l1 79h-1l-2-13h-2l1-4 1-1z" fill="#5171E7"/>
<path transform="translate(672,854)" d="m0 0h6l2 1 1 6 3 2h-11l-3-1-1-6z" fill="#3D48B4"/>
<path transform="translate(745,855)" d="m0 0 14 2v2l-8 4h-9l1-6h2z" fill="#4359D4"/>
<path transform="translate(436,437)" d="m0 0 2 1v6l2 7h26v1l-14 1h-17l-1-2v-9z" fill="#E0BD4E"/>
<path transform="translate(878,796)" d="m0 0 2 4 5 22 2 11v12l-2 3-1-5-1-20-5-22z" fill="#5470E1"/>
<path transform="translate(761,845)" d="m0 0h10l-1 3-16 4h-5v-3z" fill="#38409D"/>
<path transform="translate(434,485)" d="m0 0 2 4 2 10v8l-1 7h-1l-1-18-1-3-1 18-2 7h-2l2-9 1-20z" fill="#5271E7"/>
<path transform="translate(517,395)" d="m0 0h1v31l-4 2-16-1v-1l17-1 1-3v-26z" fill="#E0B762"/>
<path transform="translate(275,919)" d="m0 0h1v21l32 3v1l-15 1v-2l-16-1-3-1z" fill="#5D7FEF"/>
<path transform="translate(664,808)" d="m0 0 6 2 8 5-4 1-5 1 1 8-2-2-4-10z" fill="#3E4ABD"/>
<path transform="translate(753,813)" d="m0 0h6l-5 4-8 7-3 2-1-3 2-7z" fill="#C5E4FE"/>
<path transform="translate(545,717)" d="m0 0 3 3-10 17h-3v-3l9-16z" fill="#98B8F8"/>
<path transform="translate(597,864)" d="m0 0 21 2 15 2v1h-14l-16-1-5-1-2 2z" fill="#3E4BBE"/>
<path transform="translate(926,622)" d="m0 0h1l-1 19h6v2h18l4 2-25-1-4-1v-15z" fill="#7498F5"/>
<path transform="translate(616,620)" d="m0 0v3l-10 14-5 2 2-5 9-11z" fill="#AFCEFC"/>
<path transform="translate(279,888)" d="m0 0 15 1 12 1v2h9v1h-11l-25-3z" fill="#597AEC"/>
<path transform="translate(690,353)" d="m0 0h5l5 6v8h-3l-3-7-1-6z" fill="#CDB53B"/>
<path transform="translate(194,556)" d="m0 0h6v2l-21 5-4 2-9 1 2-2 17-5z" fill="#4D6AE1"/>
<path transform="translate(966,773)" d="m0 0 2 1-4 6-1 4v11l2 9 2 1-4 1-3-13 1-11 4-8z" fill="#4F6EE5"/>
<path transform="translate(770,854)" d="m0 0 4 1-10 3-2 4-1 8h-1l-1-8-8 1 2-2 6-2 1-2z" fill="#6385F3"/>
<path transform="translate(810,823)" d="m0 0 3 4 2 14 2 8-1 4-3-10-3-13z" fill="#516EE6"/>
<path transform="translate(988,737)" d="m0 0h2l3 6-1 5-2 6h-1l-1-6z" fill="#B2DAFE"/>
<path transform="translate(347,623)" d="m0 0 10 1 1 2-4 1-7-1-5 3-6 5 2-4 4-5z" fill="#3E4BBE"/>
<path transform="translate(846,461)" d="m0 0 2 1-23 23v-3l4-5 8-7z" fill="#BBDFFE"/>
<path transform="translate(339 1e3)" d="m0 0h1v10l-6-1-7-4 1-3 7 2 3 3z" fill="#5373E7"/>
<path transform="translate(418,737)" d="m0 0 2 1-2 21 3 1-4 1-1-6v-16z" fill="#DDBD46"/>
<path transform="translate(815,850)" d="m0 0 1 3-7 2h-11l-1-3h17z" fill="#5676EA"/>
<path transform="translate(576,673)" d="m0 0 1 3-8 10-3 1 2-5 4-6z" fill="#AECCFB"/>
<path transform="translate(756,834)" d="m0 0 15 1 13 1v1l-14 1-2-1h-9l-3-1z" fill="#6689F5"/>
<path transform="translate(977,770)" d="m0 0 4 2-1 6-6-3v-2h-6v-1z" fill="#4E6BE2"/>
<path transform="translate(130,584)" d="m0 0 2 1-15 14-5 4 2-4 6-7z" fill="#5070E6"/>
<path transform="translate(565,686)" d="m0 0h4l-2 4-4 6-5 2 2-5 4-5z" fill="#A0C1F9"/>
<path transform="translate(462,838)" d="m0 0 9 1v4h-6l-3-3z" fill="#516FE2"/>
<path transform="translate(536,735)" d="m0 0 1 2-5 11h-3l1-5 4-6z" fill="#ABCAFB"/>
<path transform="translate(623,611)" d="m0 0 1 3-6 7-5 2 2-5h2l2-4 2-2z" fill="#A2C2FA"/>
<path transform="translate(90,716)" d="m0 0h2l2 24-2-2-2-10z" fill="#5372E8"/>
<path transform="translate(239,868)" d="m0 0 5 5 7 6 5 2-4 1-9-6-4-5z" fill="#5A7BED"/>
<path transform="translate(656,869)" d="m0 0h8v2l2 1h-10l-10-1v-1z" fill="#4256D0"/>
<path transform="translate(614,844)" d="m0 0h9l4 2-5 2h-5z" fill="#FEFEFE"/>
<path transform="translate(447,628)" d="m0 0 2 3 1 2 1 15-2-4-2-7v-5z" fill="#3E4ABD"/>
<path transform="translate(750,856)" d="m0 0 9 1v2l-3 2h-5l-2-4z" fill="#32368C"/>
<path transform="translate(962,784)" d="m0 0h1l1 10 1 3-1 2h2v2h2l-1 3h-2l-3-9z" fill="#3E4BBE"/>
<path transform="translate(603,637)" d="m0 0 1 2-6 8h-3l2-5 4-4z" fill="#A3C3FA"/>
<path transform="translate(561,695)" d="m0 0 1 2-4 7-6 3 2-4 3-5z" fill="#A9C8FA"/>
<path transform="translate(775,837)" d="m0 0h6l-3 3-5 3-4-1 5-4z" fill="#4762DF"/>
<path transform="translate(897,902)" d="m0 0v3l-4 4h-6l4-4z" fill="#6487F4"/>
<path transform="translate(596,646)" d="m0 0 1 2-6 8-2-1v-3z" fill="#B0D0FB"/>
<path transform="translate(732,824)" d="m0 0h2l2 5v6l-3 2z" fill="#EEBED0"/>
<path transform="translate(528,746)" d="m0 0 1 2 2 1-3 6-4 1 2-6z" fill="#91B2F7"/>
</svg>
