<?xml version="1.0" encoding="UTF-8"?>
<svg version="1.1" viewBox="0 0 1360 1000" width="1280" height="1280" xmlns="http://www.w3.org/2000/svg">
<path transform="translate(474,144)" d="m0 0h418l25 1 14 3 16 8 13 9 11 10 10 13 10 17 25 50 9 19 26 52 11 23 5 10h2l7-11 7-9 3-2h25l34 2 14 2 6 4 4 5 1 6-3 17-4 10-5 8-9 5-7 2-10 1h-47l11 23 15 37 6 18 2 9 2 12 15 15 11 14 6 13 2 7v107l5 11 1 3 1 12 6 11 14 22 24 38 15 24 14 22 13 21 14 22 13 21 15 24 12 19 11 18 8 13v3h-59l-3-3-15-28-17-32-15-28-13-25-7-12-8-16-18-34-4-7-1 160-3 8-7 9-9 5-8 1-79 1-13 5-23 9-38 12-40 10-50 10-49 7-58 6-41 3-18 1h-87l-48-3-46-4-50-6-53-9-40-9-33-9-36-12-27-11-65-1-9-3-8-6-5-8-2-6-1-25v-166l-1-1-8 16-16 31-12 22-15 29-7 12-7 14-11 20-8 16-12 22-13 25-5 9-7 1h-54l1-5 13-21 16-26 12-19 8-13 24-38 15-24 24-38 30-48 14-22 16-25 9-3v-106l4-15 6-11 9-11 11-12 1-2h2l2-5 2-15 8-24 18-42 7-15-4 1h-49l-13-4-8-6-6-13-3-13v-12l4-6 6-4 13-2 33-2h24l5 5 8 11 5 9 2 1 2-6 16-33 8-17 29-58 9-19 20-38 10-13 9-10 15-12 19-9 13-3z" fill="#3D78FE"/>
<path transform="translate(328,407)" d="m0 0h719l2 1 9 21v2h2l5 15 3 8v10l-5 10-9 8-9 5h-2l-1 3-13 7-9 3-1 3-19 10-22 12-24 13-15 7-16 8-16 5-12 3-34 5-41 4-59 3-121 1-50-1-51-3-48-5-30-5-19-4-7-3-6-5-4-2v-2l-16-8-17-11-9-5-15-9-24-14-16-9-3-3-11-7-5-6-3-9v-7l3-11 5-12 12-24z" fill="#3C77FD"/>
<path transform="translate(645,168)" d="m0 0h13l22 1 32-1h182l23 2 13 5 13 7 10 9 7 8 8 13 26 60 14 33 16 37 11 26 4 10v2h-89l-3-3-6-11-6-20-11-25-7-11-1-3-4-2-10-4-17-2-14-1-9 10-11 14-3 2-10-9-14-11-6-5-1-2-27 3-12 5-5 4-2 3h-2l-2 7h-2l-1 6-1 2h-2l-3 11-5 12-6 13-7 18-1 1h-138l-2-4-7-59v-11l-8-4h-138l-12 1-5 3-6 5-9 4-8 8-2 6 7-2h8l1 1-1 10-5 24-3 9-10 3-1 1-15 1-5 2h-43l2-8 17-39 13-30 8-18 13-30 14-33 8-16 6-9 9-10 12-9 13-6 16-3z" fill="#9AB9FE"/>
<path transform="translate(438,833)" d="m0 0 23 1 84 2 80 3 41 1h44l78-2 45-2 48-1 57-2 8 7 11 8 10 4v2l40-3h5l1 1 1 62 4 9 4 5 7 5 11 2 15 1-4 2-19 8-25 9-30 9-36 9-50 10-49 7-58 6-41 3-18 1h-87l-48-3-46-4-50-6-53-9-40-9-33-9-36-12-24-10v-1l26-2 11-4 7-6 4-7 2-9v-58l24 1 23 1 11-4 11-7z" fill="#FCFCFC"/>
<path transform="translate(817,295)" d="m0 0 1 4 4 2 14 12 11 9h3l14-17 7-8 25 2 12 3 8 5 9 14 9 21 3 8 6 18 5 9v2h92l3 4 9 22 15 35 5 15v10l-6 11h-2v2h-2l-1 3-26 15-18 10h-3v2l-8 4h-3v2l-28 15-22 12-16 9-11 4-11 31-8 16-6 10-11 11-13 8-16 5-13 2-39 3-46 2-30 1h-100l-53-2-57-3-25-3-16-5-12-7-10-9-9-12-9-19-7-24-4-6-24-16-28-17-26-15-17-10-25-15-1-2-4-2-4-11v-14l10-23 17-33h2l5-15 44-1 5-2 15-1 9-3h2l2-9 6-29v-5h-10l-5 1 1-6 9-9 9-4 8-7 3-1 12-1h139l7 5 7 62 2 11h138l9-23 5-10 6-16 2-5h2l2-8h2l2-7 5-5 8-5 8-3 21-2h6zm-489 112-4 5-8 17-8 18-2 9v7l4 11 8 7 9 5 3 3 23 13 22 13 13 8 20 12 6 4 7 3 4 2 1 3 7 4 3 3 14 4 27 5 31 4 31 3 51 3 53 1 118-1 59-3 41-4 34-5 26-7 28-14 7-3 30-16 21-12 12-6 1-3 9-3 13-7 1-3 5-2 10-6 7-8 3-7v-10l-6-16-2-7h-2l-3-9-6-14-2-1z" fill="#2E58B1"/>
<path transform="translate(289,680)" d="m0 0 10 1 34 7 37 7 49 7 49 6 56 5 64 4 44 2 34 1h37l67-2 51-3 53-4 52-5 53-7 44-7 31-6 28-6h5l2 6 4 23 2 18v11l-2 14-4 12-3 4-26 5-41 6-19 3-43 6-76 9-41 4-52 4-51 2h-98l-44-2-45-3-61-6-60-7-71-10-47-7-19-4-5-4-4-10-2-15v-18l3-22 4-18z" fill="#2E58B2"/>
<path transform="translate(634,411)" d="m0 0h34l27 1 2 5 3 36 3 45v19l-2 14-7 8-9 5-16 5-13 3-25 2h-56l-36-3-24-3-25-5-25-7-26-9-34-14-29-14-17-9-13-8-14-9-5-4-3-4-1-4v-8l4-15 7-16 4-5 6-3 49-1h22l43-1h102z" fill="#6091FF"/>
<path transform="translate(446,303)" d="m0 0h139l7 5 7 62 2 11 173 1 4-1-2-5-4-6-1-3v-12l8-11 8-6 7-1 8 6 11-7 11-5 10-3h27l15 4 11 5 5-3 3-2 6 1 9 7 5 7 3 10-1 8-1 5 4 10 120 1 5 11 6 15-1 2-2-3h-476l-188-1h-55l-3 1 2-6 8-20 44-1 5-2 15-1 9-3h2l2-9 6-29v-5h-10l-5 1 1-6 9-9 9-4 8-7 3-1z" fill="#2B363D"/>
<path transform="translate(645,168)" d="m0 0h13l15 1 1 1v9l-1 1-33 1-1 8v11l4 4v2l-45 19-19 8-6 3h-4l-4-8-8-7-8-3h-73l-10 5-6 8-2 7v27l2 10 4 8 1 3 6 2 5 2 72 1 10-3 4-2v-2h2l2-5 3-8h2v-11l10-4 34-14 23-10 13-5 11-5 28-11 8-3 9-2 1-2 18-8 27-11 31-14 1-1 10-1h20l57 1 8 2v4l-6-1h-15l-11 2-15 5-11 6-8 7-7 8-4 5-10 5-8 6-13 4-25 11-28 12-31 13-35 15-20 8-29 12-13 6h-2v4h-143l-12 1-5 3-6 5-9 4-8 8-2 6 7-2h8l1 1-1 10-5 24-3 9-10 3-1 1-15 1-5 2h-43l2-8 17-39 13-30 8-18 13-30 14-33 8-16 6-9 9-10 12-9 13-6 16-3z" fill="#9AB9FE"/>
<path transform="translate(1156,661)" d="m0 0 3 1 2 6 1 12 6 11 14 22 24 38 15 24 14 22 13 21 14 22 13 21 15 24 12 19 11 18 8 13v3h-59l-3-3-15-28-17-32-15-28-13-25-7-12-8-16-18-34-4-7-1 160-3 8-7 9-9 5-8 1h-94l-11-2-9-7-5-7-1-8v-60l26-3 62-6 5-2 2-7 9-2 4-4 7-18 12-42 9-36 3-23 1-12 1-25z" fill="#2B363D"/>
<path transform="translate(1064,476)" d="m0 0 4 2 12 7 4 4 5 3 5 5 6 5 6 9 4 12 2 15v25l-3 16-4 6-4 4-6 2v2l-11 4h-3v2l-12 3-8 3-29 6-33 4-30 2h-34l-7-8-1-5v-26l4-16 6-13 64-35h2v-2l9-4h2v-2l16-8 24-14 7-4 1-2h2z" fill="#FBFBFC"/>
<path transform="translate(307,477)" d="m0 0 4 1 3 3 48 28 29 17 24 15 17 12 5 9 4 13v29l-2 8-5 4h-48l-32-3-29-5-26-7-11-4v-2l-9-2-7-5-3-5v-2h-2l-2-5-2-13v-25l2-14 4-13 6-9 9-9h2l1-3 10-7z" fill="#FBFBFC"/>
<path transform="translate(219,661)" d="m0 0 2 2 1 34 3 27 7 33 8 30 7 24 6 17 3 3 10 3 3 7 4 2 82 8 2 1 1 7v21l-1 30-2 12-8 9-10 4-11 2h-21l-65-1-9-3-8-6-5-8-2-6-1-25v-152l1-64z" fill="#2B363D"/>
<path transform="translate(1070,40)" d="m0 0 17 1 12 3 12 6 10 8 8 8 7 11 5 12 3 14v12l-2 11-5 14-6 10-9 10-7 6-16 8-9 3-5 1h-22l-14-4-15-8-7-6-4-4h-19l-2-1 2-6 5-10v-7l-4-16v-11l3-16 5-12 8-12 11-11 13-8 16-5z" fill="#D6B72F"/>
<path transform="translate(446,303)" d="m0 0h139l7 5 7 62 2 12h-26l-117-1h-122v-1l44-1 5-2 15-1 9-3h2l2-9 6-29v-5h-10l-5 1 1-6 9-9 9-4 8-7 3-1z" fill="#525C62"/>
<path transform="translate(795,169)" d="m0 0h20l57 1 8 2v4l-6-1h-15l-11 2-15 5-11 6-8 7-7 8-4 5-10 5-8 6-13 4-25 11-28 12-31 13-35 15-20 8-29 12-13 6h-2v4l-20-1-47-1h-37l-3-3 3-3 6-2 1-1 10-1h51v-2l6-3 3-1v-2h2l2-5 3-8h2v-11l10-4 34-14 23-10 13-5 11-5 28-11 8-3 9-2 1-2 18-8 27-11 31-14 1-1z" fill="#B5CBFE"/>
<path transform="translate(218,657)" d="m0 0 1 2-3 5-1 56-10 19-15 29-12 22-15 29-7 12-7 14-11 20-8 16-12 22-13 25-5 9-7 1h-54l1-5 13-21 16-26 12-19 8-13 24-38 15-24 24-38 30-48 14-22 16-25z" fill="#FCFCFD"/>
<path transform="translate(674,170)" d="m0 0h5l1 5v4l7 1h24l3 2 2 8v10l-3 3-5 1-1 3-15 4-27 11-13 5-11 5-24 10-33 14-12 4-1 11h-2l-1 7-4 6h-2v2l-6 4-8 2-72-1-11-5-5-8-2-6-1-7v-27l3-9 6-7 10-5h73l10 4 7 7 3 6v2l13-5 37-16 22-9h2v-2l-4-2-1-2v-11l2-8 8-1 25-1z" fill="#888D91"/>
<path transform="translate(782,293)" d="m0 0h36l-1 4-27 3-12 5-5 4-2 3h-2l-2 7h-2l-1 6-1 2h-2l-3 11-5 12-6 13-7 18-1 1h-138l-2-4-7-59v-10h51l109 1 1-9 3-5 4-2z" fill="#94999C"/>
<path transform="translate(859,174)" d="m0 0h10l12 4 8 6 4 7v8l-3 5-1 3 6 3 7 6 4 8 1 3v37l-3 10-5 7-8 5-3 1h-27l-4-1-8 10-2 3-4-2-14-12-5-1-2 4h-9l-11-1-10-5-7-8-3-8v-36l2-11 9-7 10-5 7-8 9-10 14-8 18-6z" fill="#A58274"/>
<path transform="translate(1162,682)" d="m0 0 3 4 12 19 15 24 14 22 15 24 14 22 13 21 14 22 13 21 15 24 12 19 11 18 8 13v3h-59l-3-3-15-28-17-32-15-28-13-25-7-12-8-16-18-34-4-7z" fill="#FCFCFD"/>
<path transform="translate(780,219)" d="m0 0h4l-1 11v36l3 8 7 8 9 4 20 2-2 2-2-1 1 5h-37l-22 1-4 2-2 4-2 9h-109l-51-1-5-5h2v-4l10-5 68-28 42-18 31-13 29-13z" fill="#9AB9FD"/>
<path transform="translate(254,498)" d="m0 0h2v105l1 64 2 47v19l-4 11-6 12v8l7 26 12 43 4 8 67 7 19 2 1 5v54l-3 11-1-3 1-7 1-30v-28l-84-8-5-3-2-7-10-2-4-4-9-26-7-26-8-32-5-26-2-21-1-34-3 9-1 50h-1v-58l4-7 2-1v-106l4-15 6-11 9-11 11-12z" fill="#2F59B2"/>
<path transform="translate(1120,499)" d="m0 0 4 2 12 12 11 14 6 13 2 7v107l3 7h-2l-1 36-3 29-5 23-10 37-8 26-6 16-5 5-2 1h-7l-1 7-2 2-14 2-72 7h-6l1 65-2-3v-63l25-3 67-7 4-10 4-16 7-25 7-28-2-9-8-20v-30l2-50 1-62z" fill="#2E58B1"/>
<path transform="translate(455,251)" d="m0 0h1l1 17 2 9 2 4 4 3v2l6 2 5 2 72 1h5l-3 2h-48l-10 1-2 2-6 2-1 2 2 1h45l39 1 15 1v1h-138l-12 1-5 3-6 5-9 4-8 8-2 6 7-2h8l1 1-1 10-5 24-3 9-10 3-1 1-15 1-5 2h-43l2-8 17-39 13-30 8-18 1-2h2l2-4 5-2 9-2 30-12 21-9z" fill="#9AB9FE"/>
<path transform="translate(817,295)" d="m0 0 1 4 4 2 14 12 11 9h3l14-17 7-8 25 2 12 3 8 5 9 14 9 21 3 8 6 18 5 9v2l2 1-2 1h-28l-4-8-1-5 2-6-1-9-4-9-5-6-9-5-5 1-3 3-4 1-13-6-12-3h-27l-15 5-13 7-4 3-8-6-7 1-8 6-7 10v12l4 8 3 4-1 3-4 1h-16l-19-1 6-16 4-9 5-12 5-13 2-5h2l2-8h2l2-7 5-5 8-5 8-3 21-2h6z" fill="#3D77FA"/>
<path transform="translate(446,303)" d="m0 0h87l44 1-3 2-31 14-36 15-44 19-31 13-16 7-3 2-1 3-2 1h-30l3-2 2-1 15-1 9-3h2l2-9 6-29v-5h-10l-5 1 1-6 9-9 9-4 8-7 3-1z" fill="#898D91"/>
<path transform="translate(674,170)" d="m0 0h5l1 5v4l7 1h24l3 2 2 8v10l-3 3-5 1-1 3-15 4-27 11-13 5-11 5-24 10-33 14-12 4-1 11h-2l-1 7-4 6h-2v2l-6 4-8 2-72-1v-1l26-1 21-8 34-14 11-5h2v-26l49-21 22-9h2v-2l-4-2-1-2v-11l2-8 8-1 25-1z" fill="#99B8FE"/>
<path transform="translate(859,174)" d="m0 0h10l12 4 8 6 4 7v8l-3 5-3 1-2 4h-7l-2-1-1-3h-46l1 8 3 8 1 6v11l-2 6h-3l-4-8-4-2-7 1-4 3v8l5 8 7 8 3 7 2 13-1 2h-2l-2 4h-9l-11-1-10-5-7-8-3-8v-36l2-11 9-7 10-5 7-8 9-10 14-8 18-6z" fill="#5C636A"/>
<path transform="translate(841,336)" d="m0 0h17l23 7 1 2-1 9 6 10 9 7 8 4 5 1 1 4-5 2h-118v-3l10-6 6-6 4-9 1-8 9-6 12-5z" fill="#3D77FC"/>
<path transform="translate(870,294)" d="m0 0h48l6 3 4 5 2 7h11l13 3 9 6 5 6 7 12 13 28 7 15v1h-45l-3-3-6-11-6-20-11-25-7-11-1-3-4-2-10-4-17-2-12-1-3-2z" fill="#95999D"/>
<path transform="translate(455,251)" d="m0 0h1l1 17 2 9 2 4-1 5-24 11-9 4-11 5-16 8-17 7-19 10-4-1v-7l12-27 6-13h2l2-4 5-2 9-2 30-12 21-9z" fill="#B5CBFE"/>
<path transform="translate(658,169)" d="m0 0h15l1 1v9l-1 1-33 1-1 8v11l4 4v2l-45 19-19 8-6 3h-4l-4-8-8-7-8-3v-2h-8l3-3 18-8 25-11 39-17 10-5 2-2z" fill="#B5CBFD"/>
<path transform="translate(834,328)" d="m0 0h27l15 4 11 5 5-3 3-2 6 1 9 7 5 7 3 10-1 8-2 4-4 3h-2v4l-7-1-12-7-6-7-4-7 1-10-23-7h-17l-12 3-12 5-8 5-2 11-5 8-9 8-6 2-1 2-10-5-4-6-1-3v-12l8-11 8-6 7-1 8 6 11-7 11-5z" fill="#A48376"/>
<path transform="translate(644,574)" d="m0 0h101l-2 20-2 5-18 2-14 1h-30l-23-2-8-2-4-16z" fill="#2A353C"/>
<path transform="translate(329,395)" d="m0 0 1 3-3 7 6-1h58l181 1h476l1 3h-721l-3 4-8 17-8 18-2 9v7l4 11 7 6 10 6v2l5 2 20 11 22 13 13 8 20 12 6 4 7 3 5 5 4 2-3 2-20-13-28-17-26-15-17-10-25-15-1-2-4-2-4-11v-14l10-23z" fill="#2E57B1"/>
<path transform="translate(569,237)" d="m0 0h1v25l-27 12-30 12-11 4h-29l-6-3 1-4 33-16 16-7 29-13 19-8z" fill="#5B636A"/>
<path transform="translate(876,179)" d="m0 0h7l7 6 3 6v8l-3 5-3 1-2 4h-7l-2-1-1-3h-46l1 8 3 8 1 6v11l-2 6h-3l-4-8-4-2-7 1-5 2-3-7-3-12v-9l11-4 23-10 29-12z" fill="#2E373E"/>
<path transform="translate(887,205)" d="m0 0 5 3 9 7 4 6 2 6v37l-3 10-5 7-8 5-3 1h-27l-1-4 11-7 5-4 6-9 3-11v-17l-2-12-6-9v-6h8z" fill="#5C646B"/>
<path transform="translate(1063,88)" d="m0 0 6 1 4 3h5l5-3h8l6 3v2h2l4 9v8l-4 8-9 8-13 7h-5l-17-12v-2l-3-1-4-8v-10l4-7 5-4z" fill="#FDFDFD"/>
<path transform="translate(712,168)" d="m0 0h105l55 1v1h-77l-10 1-16 8-23 10-27 11-4 1v-11l-2-8-2-1h-24l-7-1-1-5v-5l1-1z" fill="#9AB9FE"/>
<path transform="translate(1037,706)" d="m0 0h15l8 6 4 5 3 9-1 10-6 9-12 6h-8l-8-3-5-4-4-7-1-2v-13l5-8 8-7z" fill="#6D4C4E"/>
<path transform="translate(324,705)" d="m0 0 12 1 7 5 5 7 2 6v10l-3 7-8 7-8 3h-7l-10-5-6-8-1-3v-13l3-6 6-7z" fill="#6D4D4E"/>
<path transform="translate(398,334)" d="m0 0 1 3-11 25-5 14-3 2h-40l-1-1 1-7 3-7h2l2-6 6-7 30-11 10-3z" fill="#B5CBFE"/>
<path transform="translate(577,304)" d="m0 0h3l1 4 3 1 3 9-3 8-5 2-2-2-5-1-2 1-11-1-16 4-3 2-6-1-2 1v3l-6 2v-2h-4l-1 4-5 1-2-1-5 4-5 1-3 3-1-2-7 3-1 3-8 1-5 3h-5v2l-10 3-6 2-14 3-5 3-5 1-12 6-6 2-4 3 1-4 14-7 38-16 35-15 31-13 43-19z" fill="#5B636A"/>
<path transform="translate(696,180)" d="m0 0h15l3 2 2 8v10l-3 3-5 2-11 1h-51v-4l11-5 15-8 8-4 11-4z" fill="#2C3842"/>
<path transform="translate(895,332)" d="m0 0 6 1 9 7 5 7 3 10-1 8-2 4-4 3h-2v4l-7-1-12-7-6-7-4-7 1-9 5-5 1-3 5-3z" fill="#A48377"/>
<path transform="translate(826,283)" d="m0 0 5 3 13 11 3 1 8-11 4-1 9 5 1 5h2l-2 4-11 13-8 10h-3l-15-13-10-8-4-3v-10h3l3-5z" fill="#B4CBFE"/>
<path transform="translate(474,218)" d="m0 0h55l-1 2-40 17-27 11h-3v-14l4-8 7-6z" fill="#5B636A"/>
<path transform="translate(782,293)" d="m0 0h36l-1 4-27 3-12 5-5 4-2 3h-2l-2 7h-2l-1 6-1 2h-2l-3 11-5 12-4 8h-1l1-18 4-39 3-5 4-2z" fill="#59626B"/>
<path transform="translate(568,262)" d="m0 0h2v9l-3 8-3 5h-2v2l-6 4-8 2-72-1v-1l26-1 21-8 34-14z" fill="#898D91"/>
<path transform="translate(1150,911)" d="m0 0 2 1-4 10-2 4-5 4-2 5h-58l-1-2 4-5 11-4 2 1v-3h7l5-3h7l3-2 13 1h3l1-2h7z" fill="#262F39"/>
<path transform="translate(859,174)" d="m0 0h10l12 4v1l-10 3-34 14-25 11-10 3-2 1-2-2 5-2 7-8 9-10 14-8 18-6z" fill="#A48376"/>
<path transform="translate(834,328)" d="m0 0h27l15 4 11 6-2 5-3 2-10-4-14-4h-17l-12 3-12 5-8 5-4-2-2-2 1-4 9-6 11-5z" fill="#2C363D"/>
<path transform="translate(674,170)" d="m0 0h5l1 5v4l11 2-3 2-12 5-16 8-7 4-7 3-1 2-5-2-2-3v-11l2-8 8-1 25-1z" fill="#A38377"/>
<path transform="translate(1039,379)" d="m0 0 4 4 9 22 15 35 5 15v10l-6 11h-2v2h-2l-1 3-26 15-18 10h-3v2l-8 4h-3v2l-28 15-22 12-3 2-4-1 3-3 7-3 30-16 21-12 12-6 3-3 9-4 11-6 3-3 13-8 6-7 3-7v-10l-6-16-1-7h-2l-9-20 1-4-9-22-1-4h-92v-1z" fill="#3C5890"/>
<path transform="translate(870,294)" d="m0 0h48l6 3 4 5 3 13 2 16 2 12-2-1-9-21-7-11-1-3-4-2-10-4-17-2-12-1-3-2z" fill="#5C646B"/>
<path transform="translate(1159,786)" d="m0 0h1v107l-3 2-4-4 2-9v-23l-1-8-2-4 1-10-1-4 1-10 1-11 3-9 1-5v-8z" fill="#262F39"/>
<path transform="translate(423,312)" d="m0 0 1 2v23l-2 3-5 21v8h-2l-2 4-3 5-3 1-27 1 3-2 2-1 15-1 9-3h2l2-9 6-29v-5h-10l-5 1 1-6 9-9z" fill="#959A9D"/>
<path transform="translate(271,920)" d="m0 0 6 1v2h2l2 4v6h-2v2h-33l-2-5-3-3v-2l5 1 1-3 5 1 6 1v-2l11-2z" fill="#262F39"/>
<path transform="translate(805,226)" d="m0 0 2 4 3 8v8l5 8 7 8 1 6-7 1-10-3-2-2-1-9-3-12v-11l2-4h3z" fill="#525C62"/>
<path transform="translate(644,574)" d="m0 0h101v4l-5 1-9-3-1 3h-36l-8-1h-15l-14-1-11 1-2-1z" fill="#262F39"/>
<path transform="translate(1026,44)" d="m0 0 1 3-9 16-9 15-7 12-4 8-2-1 1-11 5-14 7-11 11-12z" fill="#D5B62F"/>
<path transform="translate(903,405)" d="m0 0h145l1 3h-94l-53-1z" fill="#2E58B2"/>
<path transform="translate(860,175)" d="m0 0h13l8 3v1l-10 3-34 14-25 11-7 1 2-4 8-4h3l9-3 2-2 14-4 2-2 1-3 5-4h4l1-6z" fill="#5B636A"/>
<path transform="translate(434,304)" d="m0 0h29v2l-9 4-17 7-10 4h-2v-7l6-9z" fill="#5C646A"/>
<path transform="translate(315,481)" d="m0 0 5 2 21 11 27 16 40 24 6 4 7 3 5 5 4 2-3 2-20-13-28-17-26-15-17-10-20-12z" fill="#756057"/>
<path transform="translate(679,170)" d="m0 0h26l2 7 4 2v1l-24 1-7-1-1-5z" fill="#B4CAFE"/>
<path transform="translate(1043,488)" d="m0 0h3v2l-20 11-9 5h-3v2l-8 4h-3v2l-28 15-22 12-3 2-4-1 3-3 7-3 30-16 21-12 12-6 3-3 9-4 11-6z" fill="#605655"/>
<path transform="translate(219,661)" d="m0 0 2 2 1 46h-1l-2-16-1 19-2 1v-41z" fill="#343F46"/>
<path transform="translate(953,374)" d="m0 0 10 2h18l8 1 2-1 3 1 1 3h-45l-1-3z" fill="#888E92"/>
<path transform="translate(306,446)" d="m0 0h1v17l4 11 7 6 10 6-2 1-9-5-5-1-2-3-4-2-4-11v-13l3-3z" fill="#3359A9"/>
<path transform="translate(870,294)" d="m0 0h48v1h-14l-1 4-7 1-23-2-3-2z" fill="#90817D"/>
<path transform="translate(457,249)" d="m0 0 4 2 2 6 1 16 1 6v5l-4-4-3-8-1-7z" fill="#959A9D"/>
<path transform="translate(905,376)" d="m0 0h4l1 4-5 2h-118v-1l99-1 20-1 1-2z" fill="#2E58B2"/>
<path transform="translate(674,170)" d="m0 0h5l1 5v4l11 2-3 2-10 4h-2v-2l1-1-1-2-9 1v-3l6-1z" fill="#8A8F92"/>
<path transform="translate(220,895)" d="m0 0 5 1 3 6 2 6 1 7-5-1-2-4v-3h-2l-3-3-2-3 1-4z" fill="#262F39"/>
<path transform="translate(315,481)" d="m0 0 5 2 21 11 27 16 2 2-3 1-19-11-24-14-9-6z" fill="#7F685F"/>
<path transform="translate(843,191)" d="m0 0 4 1-31 13-6 3h-5l2-4 8-4h3l9-3 2-2z" fill="#586067"/>
<path transform="translate(989,518)" d="m0 0 2 1-3 3-24 13-14 8-4-1 3-3 7-3 30-16z" fill="#585355"/>
<path transform="translate(1067,467)" d="m0 0h2l-1 6-2 3h-2v2h-2l-1 3-14 8-4-2 14-8 7-8z" fill="#425B94"/>
<path transform="translate(1062,440)" d="m0 0h2l2 4 2-1 4 12v10l-2 4-1-2h-2v-13z" fill="#2E58B2"/>
<path transform="translate(841,336)" d="m0 0h17l23 7 1 2-2 3-1-3-16-5-5-1h-21l-10 2 2-2z" fill="#2E58B2"/>
<path transform="translate(512,288)" d="m0 0 4 1h22l8-1h5l2 3-5 1-44-1v-1z" fill="#959A9D"/>
<path transform="translate(219,657)" d="m0 0 1 4-3 11-1 50h-1v-58z" fill="#8D8E91"/>
<path transform="translate(219,674)" d="m0 0h1l1 26v14l-2 3-1-1v-23z" fill="#262F39"/>
<path transform="translate(1064,393)" d="m0 0 9 3 11 3v3h-7l-12-6z" fill="#2E58B2"/>
<path transform="translate(945,541)" d="m0 0 2 1 1 2-14 7h-5l1-3z" fill="#3458A3"/>
<path transform="translate(782,293)" d="m0 0h12l14 1v1l-8 2h-12l-2-1v-2z" fill="#A0857A"/>
<path transform="translate(916,365)" d="m0 0h1l2 9 1 5h27l1-2v2l2 1-2 1h-28l-4-8-1-5z" fill="#2E58B2"/>
<path transform="translate(307,393)" d="m0 0 2 2-9 6-10 1 1-3 11-3z" fill="#2E58B2"/>
<path transform="translate(887,205)" d="m0 0m-1 2m-9 1 8 1-1 6-2 3-1-3-4-1z" fill="#54595F"/>
<path transform="translate(412,539)" d="m0 0h6l7 5 1 2 4 2-3 2-15-10z" fill="#555A72"/>
<path transform="translate(1043,488)" d="m0 0h3v2l-18 10-8 1 5-4 10-4z" fill="#4A5675"/>
<path transform="translate(510,286)" d="m0 0 3 1-1 2-8 2h-28v-1l26-1z" fill="#928A87"/>
<path transform="translate(859,174)" d="m0 0h10v1l-15 2-3 2-13 1 3-2 10-3z" fill="#8B9093"/>
<path transform="translate(963,532)" d="m0 0h2l-1 3-14 8-4-1 3-3 7-3z" fill="#404857"/>
<path transform="translate(350,502)" d="m0 0 8 2 12 7-1 2-5-2-14-8z" fill="#8C7153"/>
<path transform="translate(1059,428)" d="m0 0 2 1 2 5 3 3 1 7-1 3-2-7h-2l-3-9z" fill="#2C4573"/>
<path transform="translate(814,194)" d="m0 0 1 2-1 6-8 4-1 3-5 2-2-2 5-2 7-8z" fill="#888585"/>
<path transform="translate(664,191)" d="m0 0 3 1-10 6-8 4-4-1 13-7z" fill="#8A8889"/>
<path transform="translate(674,170)" d="m0 0h5l-1 10h-3l-1-2z" fill="#2F3A41"/>
<path transform="translate(817,293)" d="m0 0 1 2-1 2-11 1-2-2 4-2z" fill="#455B82"/>
<path transform="translate(679,171)" d="m0 0 1 4 1 6h-8v2h-6v-3l8-2v2h3z" fill="#71787F"/>
<path transform="translate(715,190)" d="m0 0h1v10l-3 3-4 1 2-4z" fill="#354150"/>
<path transform="translate(1062,359)" d="m0 0 2 1-1 6-5 7-1-3z" fill="#2E58B2"/>
<path transform="translate(849,226)" d="m0 0 5 1-1 6h-5z" fill="#393C42"/>
<path transform="translate(1067,467)" d="m0 0h2l-1 6-2 3h-2v2h-2l2-7z" fill="#2E4B84"/>
<path transform="translate(1153,896)" d="m0 0 2 3v9l-4-4 1-7z" fill="#262F39"/>
<path transform="translate(309,361)" d="m0 0h3l3 8v2l-4-2-2-4z" fill="#2E58B2"/>
<path transform="translate(696,180)" d="m0 0h15l3 2 1 5-3-1-3-3v-2h-13z" fill="#4B5665"/>
<path transform="translate(873,226)" d="m0 0h5l-1 5-4 2-1-6z" fill="#473D42"/>
<path transform="translate(219,883)" d="m0 0 5 1v5l-2 1-4-3z" fill="#262F39"/>
<path transform="translate(1050,483)" d="m0 0h6l-5 4-5 2-3-2z" fill="#50628E"/>
<path transform="translate(936,339)" d="m0 0 2 4 2 14-2-1-2-9z" fill="#888E92"/>
<path transform="translate(1043,488)" d="m0 0h3v2l-11 6h-2v-2z" fill="#605A5D"/>
<path transform="translate(752,345)" d="m0 0m-1 1m-1 1m-1 1 3 1-2 8-2 1v-7z" fill="#495564"/>
<path transform="translate(843,191)" d="m0 0 4 1-12 5h-2l1-3z" fill="#565F66"/>
<path transform="translate(995,111)" d="m0 0h2l2 5v3l-3-1z" fill="#D6B72F"/>
</svg>
