<?xml version="1.0" encoding="UTF-8"?>
<svg version="1.1" viewBox="0 0 1360 864" width="1280" height="1280" xmlns="http://www.w3.org/2000/svg">
<path transform="translate(403,84)" d="m0 0h176l9 2 8 6 5 10 1 201h37l56-1 36-1 3-1 4-8 7-4h7l7 3 5 6 1 3v7l-4 6-6 5-8 1-6-2-5-5-2-7-10 1-48 1-74 1-1 64 75-5 21-1 38-1h33l33 1 30 2 46 5 36 6 25 6 19 7 27 13 3 1 1-6 8-20 12-36 3-11-2-2 1-5 8-20 6-11 9-10 11-5 19-2v-8l-12-6-6-9-2-6v-15l1-8-4-3 1-6 3-3 5-10 4-5 7-2 16 3 6 2 5-1 9 4 5 8 2 6 1 9-2 6-3 3 1 8-5 7-9 5-2 2v11l2 9 8 2 20 3 15 8 14 10 10 8h2l6-16 6-20v-8l-3-4-2-7v-8l2-7h4l2 6 3-10 5-8 4 1 9 12-3 9-6 14-4 39-5 21-5 10-5 5-4 1-15-3-6-3h-2l-3 5-5-1-9-7 3 66 1 18v16l-2 2 2 12 6 52 36 12 23 10 21 11 19 12 23 6 19 8 11 8 8 9 7 12 4 11 2 9 12 6 4 5 1 5 1 24-1 35-2 25-4 16-6 10-9 10-4 3-26 1-9 19-8 11-6 7 16 1 28 4 13 4 2 1v4l-8 3-20 4-34 4-67 5-80 4-53 2-116 3-54 1-215 1h-103l-124-2-115-3-75-3-57-3-55-4-37-4-24-4-11-4 1-4 6-3 11-3 7-10 5-8h2v-12l11-47 16-64 12-45 5-41 2-22-15-3-52-12-10-3-4-4 1-8 12-35 7-19 4-5 9-2 8-19 5-10 2-18 5-17 12-32 11-26 7-11 8-7 11-3 3-2h10l6-3 6-8 2-13-6 2h-7l1-6-7 1v-3l4-3-1-6-7-8-3-7 1-6 5-7-2-7 4-6 6-4 20-4 7-3 3-3h3l-1 8 6-2h13l1 1v12l-1 9 5 1-1 5-4 8 2 10v9l-4 10-8 7-7 3 1 7 4 5 7 4 18 5 8 6 5 12 10 32 4 4 8-7 13-13 5-4-2-4-4-10v-5l4 2 3 2v-18l1-2 7 1 5 5 3 12 1 5v8l-6 12-1 5 1 5-12 16-7 9-11 13-9 8-6 3-8-1-5-5 3 32 5 47v7h-7l2 28 1 20v120l1 3 7 5-2-6-3-8 1-4 1-1 7 1 7 5 3 3v2h2l-4-12v-11l7 1 3 2v-16l1-23 3-24 5-29 3-22 3-10 7-13 8-4 17-3 8-6 10-9 19-14 21-14 4-3 1-342 4-8 9-8zm623 279-3 8-9 22-10 19-2 4 18 11h2l5-47v-17zm-885 7-11 28-2 8-3 32v10l5 1 2-1 7-26 5-22 1-6v-10l-2-14zm-44 61-5 16 1 1h6l1-4-1-13zm92 84-6 36-13 65-9 30-10 28-11 28-17 41-9 21-5 4-1 2v8l6 4 55-4 32-2 5-2-1-5-2-2-1-127-1-41-3-37-5-37-2-10zm55 156-1 1-5 59-5 36-7 3-1 4h19l68-3-6-12-6-13-5-16-4-20-9-2-3-2-2-31-1-4zm640 70-5 10-6 13v3l55 1 80 2h23l2-1v-2l4-2 3-4v-7l-3-3-5-2-2-6-7-1-128-1zm-357 1-56 1-24 1-8 16-3 5 1 3 138-2 41-1-7-17-2-6zm536 1-4 9 1 8 4 9 1 2 3 1 51 2-2-5-13-26z" fill="#3D75FC"/>
<path transform="translate(582,392)" d="m0 0 24 1 14 3 11 7 11 9 7 7 8 7 13 12 22 22-3 1h-16l-9 2-10 5-4 5-1 3v8l3 6 6 5 9 2h26l5-5 3-9v-10l-1-5 4 2 20 20 2 5v5l30 4 10 1-3-8 1-4h157v1h-5l-1 4 16 4 71 19 64 16 123 31 47 12 9 1-4-10-10-13-4-5-8-7-15-10v-2l-6-2-2-3 10 4v2l6 2 4 2 1-4 11 7 23 6 19 8 11 8 8 9 7 12 4 11 2 9 12 6 4 5 1 5 1 24-1 35-2 25-4 16-6 10-9 10-4 3-26 1-9 19-8 11-5 5-8 6-11 5-6 2-18 1h-53l-10-4-11-7-5-4-8-10-8-16-4-9h-41l-3 8 1 8 4 9v2h2l1 10-13 2-26 2h-14l-4-3 1-4 8-4 11-5h2v-2l5-4 1-2v-9l-7-2-2-4v-2l-7-1-128-1h-11l-9 20-5 8-9 10-10 7-12 5-7 2h-68l-16-8-1-1-7 1-11 5-9 3h-68l-12-5-12-9-7-8-7-10-6-14-1-7 33-1 2-1 11-1 1-2 7-3 9-1-9-5 2-1 1-2h28l1-129 1-49v-20l1-6h-10l-70-5-6-1v-1h13l75 3 5-4 5-5 6-4h2v-2l-5-1-48-1-52-2-74-3-42-2-35-1-17-2-16-4-12-6-11-8-9-10 2-4 8-8 17-11 18-10 29-14 28-11 17-5 20-3 23-2z" fill="#3C75FC"/>
<path transform="translate(537,93)" d="m0 0h49l6 4 2 7 1 197 5 2h39l56-1 36-1 3-1 4-8 7-4h7l7 3 5 6 1 3v7l-4 6-6 5-8 1-6-2-5-5-2-7-10 1-48 1-76 1-6-1v65l-3 1-35 2-24 4-2 1-20 3-11 2v2l-19 6-15 5-4 4-7 4h-3v2l-16 8-10 3-7 4-1 2-7 2v2h-4l-1 3-10 5h-1v-335l3-5h2v-2l3-1h45l2 5 86 1 1-6z" fill="#C5C6C2"/>
<path transform="translate(575,765)" d="m0 0h42l10 13 10 8 12 6 3 1h68l19-7 3-2h5l10 6 7 3h68l15-5 10-6 9-8 5-6 2-3v2h55l80 2 20 1-3 3-12 5-1 4 3 2h14l39-3-1-10 53 2 4 4v2l4 2 10 7 6 3 6 2h54l17-1 13-5 11-6 39 5 16 4 4 2v4l-8 3-20 4-34 4-67 5-80 4-53 2-116 3-54 1-215 1h-103l-124-2-115-3-75-3-57-3-55-4-37-4-24-4-11-4 1-4 6-3 12-3 6 3 9 2 8 4 27 7 7-1-1-4-21-14-2-5 6 3 55-4 35-2-4 12-3 7v4l41 4h13l2-6-9-3-10-5-7-4-3-3v-6l1-1 88-4 8 9 11 7 9 2h64l14-6 9-7 8-8z" fill="#FBFBFB"/>
<path transform="translate(200,207)" d="m0 0h3l-1 8 6-2h13l1 1v12l-1 9 5 1-1 5-4 8 2 10v9l-4 10-8 7-7 3 1 7 4 5 7 4 18 5 8 6 5 12 10 32 4 4 8-7 13-13 5-4-2-4-4-10v-5l4 2 3 2v-18l1-2 7 1 5 5 3 12 1 5v8l-6 12-1 5 1 5-12 16-7 9-11 13-9 8-6 3-8-1-5-5 3 32 5 47v7h-7l-1 3v-2h-10l-7-1-2-12v-5h-43l-2 15-1 4-2 1h-10l-6-3-3 12-5 33-3 6h-12l-1 3v-3l-15-3-52-12-10-3-4-4 1-8 12-35 7-19 4-5 9-2 8-19 5-10 2-18 5-17 12-32 11-26 7-11 8-7 11-3 3-2h10l6-3 6-8 2-13-6 2h-7l1-6-7 1v-3l4-3-1-6-7-8-3-7 1-6 5-7-2-7 4-6 6-4 20-4 7-3zm-59 163-11 28-2 8-3 32v10l5 1 2-1 7-26 5-22 1-6v-10l-2-14zm-44 61-5 16 1 1h6l1-4-1-13z" fill="#3E76FD"/>
<path transform="translate(783,385)" d="m0 0h18l55 1 29 1 23 2 20 4 17 5 27 11 23 12 22 13 13 9 19 14 15 14 10 9 6 6v2l3 1v2l-18 1h-304l-18-18-8-7-12-12-8-7-17-16-19-19-8-7-12-12v-2l-3-1v-2l27-2 25-1z" fill="#29343A"/>
<path transform="translate(769,604)" d="m0 0h36l9 6 5 5 7 8 8 14 6 15 5 19 3 18 2 24v14l3 7 7 6 23 1-1 6-8 17-4 6-9 10-10 7-12 5-7 2h-68l-16-8-1-1-7 1-11 5-9 3h-68l-12-5-12-9-7-8-7-10-6-14-1-6h47l2 1-2 4-6 1-2-1-1-3-7-1v2h2l5 5 5 3 4-5 5 2v2l5-1-1-6 1-3 9-1 12 2 2-2 30-1-2-6-2-13-2-5v-25l3-21 5-17 10-21 11-13 7-6 9-5 7-3z" fill="#29343A"/>
<path transform="translate(179,469)" d="m0 0h43l2 17 17 1 2 8 2 39v123l-4 52-4 38-3 20-8 4-1 10 6 5 12 5 3 2 7 2 1 3-3 5h-13l-41-4-1-5 5-12 3-7 1-5-3-3-1-127-1-41-3-37-5-37-1-10h-2v8l-8 44-10 49-9 30-10 28-11 28-17 41-9 21-4 4h-2v12l5 5 11 7 7 5v4l-3 2-8-1-23-6-8-4-9-2-6-3 2-5 9-14h2v-12l11-47 16-64 12-45 5-41 2-19 1-3 12-1 2-5 5-33 3-12 2-1v2l5 1h12l2-16z" fill="#2A353B"/>
<path transform="translate(1058,197)" d="m0 0 14 2 10 3 5-1 9 4 5 8 2 6 1 9-2 6-3 3 1 8-5 7-9 5-2 2v11l2 9 8 2 20 3 15 8 14 10 10 8h2l6-16 6-20v-8l-3-4-2-7v-8l2-7h4l2 6 3-10 5-8 4 1 9 12-3 9-6 14-4 39-5 21-5 10-5 5-4 1-15-3-6-3h-2l-3 5-5-1-9-7 3 66 1 18v16l-5 3-11 4-12 3-15 2h-29l-9-2-17-11-3-2v-9l4-39v-16l-5 15-8 18-9 16-4 1-12-6-1-1 1-7 8-20 12-36 3-11-2-2 1-5 8-20 6-11 9-10 11-5 19-2v-8l-12-6-6-9-2-6v-15l1-8-4-3 1-6 3-3 5-10 4-5z" fill="#D7B72F"/>
<path transform="translate(582,392)" d="m0 0 24 1 14 3 11 7 11 9 7 7 8 7 13 12 22 22-3 1h-16l-9 2-10 5-4 5-1 3v8l3 6 6 5 9 2h26l5-5 3-9v-10l-1-5 4 2 20 20 1 10-63-1-52-2-74-3-42-2-35-1-17-2-16-4-12-6-11-8-9-10 2-4 8-8 17-11 18-10 29-14 28-11 17-5 20-3 23-2z" fill="#283339"/>
<path transform="translate(344,599)" d="m0 0h14l10 2 9 5 9 8 9 13 7 15 5 16 4 22 1 13v51h35l-4 11-9 15-9 9-12 7-8 3h-64l-9-2-11-7-7-7-4-5-6-10-6-15-4-13-4-23v-26l4-25 6-18 8-15 9-10 8-7 8-4z" fill="#29343A"/>
<path transform="translate(158,301)" d="m0 0h3l1 3 1 15 1 32v14l-1 26-4 30-5 21v7l5 5 2 11-1 15-2 6-3 12-5 33-3 6h-12l-1 3v-3l-15-3-52-12-10-3-4-4 1-8 12-35 7-19 4-5 9-2 8-19 5-10 2-18 5-17 12-32 11-26 7-11 8-7 11-3zm-17 69-11 28-2 8-3 32v10l5 1 2-1 7-26 5-22 1-6v-10l-2-14zm-44 61-5 16 1 1h6l1-4-1-13z" fill="#676E73"/>
<path transform="translate(402,94)" d="m0 0h45l2 5h86l3-4h45l7 3 1 2 1 35v28l-2 6-16 16h-2l-2 4-6 5-13 13-4 2h-7l-13-4-10-2-19-6-1-7 6-12 10-17 10-18 1-6h-7l-5 5-3 7-7 10h-7l-28-7-17-4-39-10-13-2-3-3v-33l2-3h2v-2z" fill="#E2E3E5"/>
<path transform="translate(790,392)" d="m0 0h23l51 2 36 3 21 3 24 7 20 9 19 10 20 12 5 4 7 4 15 11 12 9 9 7 8 6 1 3-2 1h-12l-39-3-56-6-53-6-32-5-17-4-15-6-9-6-10-9-8-10-9-13-10-19z" fill="#676E73"/>
<path transform="translate(736,131)" d="m0 0h21l16 3 12 5 9 7 9 9 8 14 4 15v16l-3 13-7 13-9 11-30 30-8 5-11 1-10-3-10-9-28-28-7-10-5-10-3-10-1-7v-8l3-15 4-9 6-10 6-7 12-9 12-5zm11 33-10 5-7 9-3 8v10l3 9 4 6 9 6 9 1 8-4 7-7 4-10v-13l-6-12-9-7z" fill="#97B7FE"/>
<path transform="translate(921,493)" d="m0 0h65l106 1 15 4 20 5 11 3 13 4 15 6 14 5 17 9 7 4v2l5 2 11 8 11 10 4 6 8 11 2 4v4h-9l-111-28-134-34-34-9-26-7-16-5 1-4z" fill="#729DFF"/>
<path transform="translate(1074,597)" d="m0 0h85l3 7 8 4 4 1h17l9-3 5-3 3-6h22l30 1 7 6 1 5h2v3l3 1v3l3 1 5 9 3 4v5l-9 9-5 3-7 1h-175l-12-3-28-10-11-4-1-2 9-12 4-5 8-7 9-6z" fill="#29343A"/>
<path transform="translate(533,395)" d="m0 0h7l-4 18-9 45-7 34h16v1h-17l-60-2-17-2-16-4-12-6-11-8-9-10 2-4 8-8 17-11 18-10 29-14 28-11 17-5z" fill="#29343A"/>
<path transform="translate(866,559)" d="m0 0 14 1 29 5 38 8 59 12 32 8 1 5-5 6h-2l-2 4-7 5h-3v2l-11 5-9 2h-14l-55-6-31-4-25-5-20-6-16-7-2-1v-2l-4-1-6-7v-7l5-5 13-6 16-5z" fill="#B8CDFB"/>
<path transform="translate(969,699)" d="m0 0h306l16 8v7l-3 12-1 1h-25l-247-3-22-1-11-10-11-9-3-4z" fill="#29343A"/>
<path transform="translate(768,642)" d="m0 0h11l10 4 9 8 7 11 5 15 2 14v11l-2 14-4 12-6 11-9 10-9 5-4 1h-8l-8-3-8-6-6-7-7-14-4-14-1-7v-15l3-15 5-13 8-11 8-7z" fill="#7E8791"/>
<path transform="translate(156,302)" d="m0 0h1l2 26 1 18v22l-1 24-5 31-5 21-2 4-3 1h-12l1-7 8-32 3-16v-10l-1-14h-2l-1 5-9 23-2 8-3 32v13l-3 21-3 5-13 5h-5l-1-2-2-26-1-6 1-4-1-14v-11l1-2 2-18 5-17 12-32 11-26 7-11 8-7 11-3z" fill="#3E76FC"/>
<path transform="translate(342,638)" d="m0 0h12l8 4 6 5 7 11 4 10 3 12 1 9v13l-3 17-5 13-8 12-8 7-5 2h-13l-10-6-7-8-7-15-4-18v-24l4-16 7-14 7-8 8-5z" fill="#7E8791"/>
<path transform="translate(403,84)" d="m0 0h176l9 2 8 6 5 10v201h-4l-3-2-1-197-2-7-5-3h-49l-2 6h-86l-2-5-2-1-24-1h-13l-10 2-4 6-1 17-1 322-7 3v-341l4-8 9-8z" fill="#2A353B"/>
<path transform="translate(1187,743)" d="m0 0h35l45 1-1 6-9 17-7 9-5 5-9 6-9 4-6 2-18 1h-53l-10-4-11-7-5-4-8-10-8-16-3-9h31l5 5 9 6 9 2 9-2 11-7 3-4z" fill="#29343A"/>
<path transform="translate(394,102)" d="m0 0h1l1 33 19 3 80 20h7l8-12 2-5 5-5h7l1 4-8 16-15 26-4 9 1 5-8-1-5 1-2 4-10 18-7 13-1-2 3-8-17-4-48-12-2-2 3-8 16-27 6-12v-3l-26-7-5-1-1 71h-1z" fill="#C5C6C2"/>
<path transform="translate(824,369)" d="m0 0h18l42 5 39 7 21 6 15 6 28 13 10 6 5 2 3 3 15 9 22 14 9 2h29l19-3 15-4 6-2 3 12 5 43-1 7-1 1h-7l-11-4-11-7-1-3-5-2-20-15-2-1v-2l-4-2-5-3-4-4-5-1v3l2 4 5 1 5 4 9 8 7 11 3 5h-2l-7-8-17-16-12-10-11-8-21-14-21-12-21-11-28-11-22-6-21-3-14-1-29-1-55-1-93 1-39 2h-13l-1 2v-3l41-3 29-1 73-1 5-1h10v-2h7l1-2h2z" fill="#366BEF"/>
<path transform="translate(461,279)" d="m0 0 3 3 4 2 3 2 9 1 7 2 15 2 14 4 17 4 14 5 3 5-1 14-3 10-1 10-2 5v3l-1 5-3 2h-8l-16-5-11-3-9-3-10-3-12-4-13-4-20-4-10-3-1-1v-5l4-7 8-16 9-11 5-7z" fill="#FCFCFC"/>
<path transform="translate(590,184)" d="m0 0 2 3 1 6v100l-1 6-8-1-63-16-3-2 1-6 10-18 10-19 5-8 3-3 6-9 5-4 13-13 8-7 7-7z" fill="#FDFDFD"/>
<path transform="translate(183,301)" d="m0 0 4 5 10 6 6 1 1-4 2-4 2 5 3 17 2 22 5 63 5 46v8l-1 1-9 1h-27l-5-2 1-12 2-29v-72l-1-29z" fill="#BCD0FA"/>
<path transform="translate(788,605)" d="m0 0h19l8 6 5 5 6 7 8 14 6 15 5 19 3 18 2 24v14l3 7 7 6 23 1-1 6-8 17-4 6-9 10-10 7-12 5-4 1h-45l5-5 8-6 8-7 9-13 6-12 6-18 3-20v-16l-2-23-5-19-7-16-10-14-7-8-12-8v-2z" fill="#020202"/>
<path transform="translate(180,290)" d="m0 0 2 3 1 5 2 55v72l-2 29-2 12 5 1h37l2 11 1 1 3-5h14l5 2 1 3v7h-7l-1 3v-2h-10l-7-1-2-12v-5h-43l-2 15-1 4-2 1h-10l-5-2 1-22-2-11-5-5v-7l5-21 4-30 1-26v-14l-1-32-1-17 9-2 4-2z" fill="#3D75FC"/>
<path transform="translate(200,207)" d="m0 0h3l-1 8 6-2h13l1 1v12l-1 9 5 1-1 5-4 8 2 10v9l-4 10-8 7-7 3 1 7v14l-2 4-3 1-8-4-7-5-3-7-1-11 1-10-6 2h-7l1-6-7 1v-3l4-3-1-6-7-8-3-7 1-6 5-7-2-7 4-6 6-4 20-4 7-3z" fill="#AD6A5F"/>
<path transform="translate(541,136)" d="m0 0h48l2 2v21l-1 7-6 6h-2v2l-7 5-5 5-7 8-7 6h-2l-2 4-5 2h-11l-10-4-8-1v-2l-9-3-5-4 1-8 7-12 9-19 7-12 4-2z" fill="#FDFDFD"/>
<path transform="translate(708,740)" d="m0 0h9l-2 1v7l-8 16-9 12-8 8-11 8 41 1v1h-68l-12-5-12-9-7-8-7-10-6-14-1-6h47l2 1-2 4-6 1-2-1-1-3-7-1v2h2l5 5 5 3 4-5 5 2v2l5-1-1-6 1-3 9-1 12 2 2-2z" fill="#29343A"/>
<path transform="translate(455,681)" d="m0 0 26 1 51 4 34 3 39 4 33 4 32 5 12 4 1 3-4 1-65-2-102-2-20-1-35-1-21-2-2-1 2-5 7-8 8-6z" fill="#729DFF"/>
<path transform="translate(1058,197)" d="m0 0 14 2 10 3 5-1 9 4 5 8 2 6 1 9-2 6-3 3 1 8-5 7-9 5-2 2v11l2 9v3l-14 7h-7l-3-3v-7l1-1v-8l-12-6-6-9-2-6v-15l1-8-4-3 1-6 3-3 5-10 4-5z" fill="#E2A28A"/>
<path transform="translate(418,339)" d="m0 0 9 1 18 6 6 5 1 41 2 1-21 10-11 7h-2v4l6-2 22-12 10-5h7l-3 4h-2v2l-6 1v2l-9 4-13 7-1 2-7 3-6 3-1 2-7 2v2h-4l-1 3-7 4h-3v-22l1-32 2-9h2l1-5 13-25z" fill="#FBFCFC"/>
<path transform="translate(491,202)" d="m0 0 9 1 38 13 2 1v6l-10 18-8 15-6 12-4 7-3 2h-7l-25-5-10-5-5-7 1-9 12-23 13-23z" fill="#E2E2E2"/>
<path transform="translate(267,197)" d="m0 0h14l10 4 9 8 6 10 2 6 1 10-4 11-6 9-7 6-11 4-7 1-12-2-11-6-1-2-4-1h-6l-1-3 2-5-1-8v-15l4-11 9-10 10-5z" fill="#D7B82F"/>
<path transform="translate(976,192)" d="m0 0h12l11 4 9 7 6 10 2 7 1 14 3 4 1 4-9 2-9 10-9 5-4 1h-16l-10-4-8-7-6-9-2-5v-15l4-11 6-8 11-7z" fill="#D8B82F"/>
<path transform="translate(827,602)" d="m0 0 9 2 55 15 30 7 24 4 19 3 20 6 22 9 20 9 4 2v1h-46l-35-2-28-3-12-4-16-8-24-13-17-11-6-3-14-9z" fill="#345CB9"/>
<path transform="translate(362,601)" d="m0 0 9 1 11 8 8 9 8 14 6 14 5 20 2 13 1 13v51h35l-4 11-9 15-9 9-12 7-6 2h-44l4-4 8-6 9-10 8-14 5-11 4-12 3-21v-31l-3-19-6-18-8-16-6-8v-2l-4-2-6-5v-2l-4-2-5-3z" fill="#020303"/>
<path transform="translate(725,495)" d="m0 0h1v5l30 4 13 2 38 10 30 10 15 6 17 8 11 7 4 2v2l-9-2-56-14-22-5-30-4-21-2-47-3-2-1-2 26h-1v-20l1-6h-10l-70-5-6-1v-1h13l75 3 5-4 5-5 6-4h2v-2l-3-1h13z" fill="#345DBA"/>
<path transform="translate(491,194)" d="m0 0 33 10 19 7 7 3v6l-16 28-8 16-7 12v4l18 5 47 12 8 3 2 2-1 5-22-5-20-6-25-7-10-3-6-3v-6l8-14 8-16 10-19 3-5 1-6-11-3-32-11h-6l-6 9-14 26-9 16-5 10-4 7-10 17-5 4h-5l-2-2-10-2-9-6-3-6v-10l4-6 4-3 9-1 6 4 3 3 2 5-2 9-2 3v5l5-2 8-16 9-16 6-11 8-14 6-12 9-15 4-4z" fill="#D8B82F"/>
<path transform="translate(440,157)" d="m0 0h9l35 9 10 4v6l-14 28-3 5-1 1h-9l-11-3-25-5-10-3-3-2 1-6 11-19 6-10z" fill="#FDFDFD"/>
<path transform="translate(1118,433)" d="m0 0h2l3 12 5 43-1 7-1 1h-7l-11-4-11-7-1-3-5-2-20-15-2-1v-2l-4-2-5-3-5-5-9-7-1-3-3-1 9 1h29l19-3 15-4z" fill="#3665D3"/>
<path transform="translate(1213,744)" d="m0 0h54l-1 6-9 17-7 9-5 5-9 6-9 4-6 2-18 1h-12l-10-1-2-1 2-4 8-6 7-7 11-17 5-13z" fill="#020202"/>
<path transform="translate(537,93)" d="m0 0h49l6 4 2 7 1 197 5 2h39l56-1 36-1 3-1 4-8 7-4h7l7 3 5 6 1 3v7l-4 6-6 5-8 1-6-2-5-5-2-7-10 1-48 1-76 1-6-1v65h-1l-1-65 1-5-2-3 1-6v-100l-2-8-6 4-11 11-8 7-4 4h-2l-2 4-5 5-6 9-1-3 4-6v-6l-23-8-2-2 10 2 6 2h7l6-4 8-8h2l1-3 7-6 19-19 1-5v-28l-1-37-7-2h-45l-3 3z" fill="#C6C6C2"/>
<path transform="translate(396,144)" d="m0 0 5 1 26 7 1 4-8 16-12 20-4 7-1 4 7 3 31 7 25 6 3 2-1 6-4 6-2 1h-11l-23-6-16-4-14-3-3-5v-71z" fill="#E3E4E6"/>
<path transform="translate(541,394)" d="m0 0h18l-2 20-4 32-5 36-2 10-5 1-21-1 1-9 8-39 6-31 4-16z" fill="#010101"/>
<path transform="translate(1178,228)" d="m0 0 4 1 9 12-3 9-6 14-4 39-5 21-5 10-5 5-4 1-15-3-4-2 1-7 8-14 6-4 6-16 6-20v-8l-3-4-2-7v-8l2-7h4l2 6 3-10z" fill="#E5A48C"/>
<path transform="translate(200,207)" d="m0 0h3l-1 8 6-2h13l1 1v12l-1 9 5 1-1 5-3 5-4-2-5-7-16-1-7 3-5 6-1 13-3 1-7-1-2 4 1 7 7 6-4 4h-7l1-6-7 1v-3l4-3-1-6-7-8-3-7 1-6 5-7-2-7 4-6 6-4 20-4 7-3z" fill="#2B363C"/>
<path transform="translate(1290,714)" d="m0 0 2 2 2 3h2l3 7 1 5-1 5-6 7h-20v-1h-12v-3l-3 1-6-2-9-2-2-2h-7l-1-1h-9l-7 2-9 1-7-1h-5l-2-1-4-1-15-1-8-1-19-1h-12l-23-1-19-2-15-1-56-1v-1h79l160 2h25z" fill="#356AF1"/>
<path transform="translate(346,645)" d="m0 0 5 1 1 8 3 1 4 8 1 4h9l6-1 2 7-6 11-5 7-1 7 5 10 3 7 3 3v4l-3 1-6-4-10-8v-2h-2l-3-11-1-10-8-2-2 6-6-3-8-7v-2l-4-2v-2h-2l-3-5v-5l6-4 3 2v2l7-3 7-5h2l1-9z" fill="#7E8792"/>
<path transform="translate(673,460)" d="m0 0h16l7 2 5 6 1 5v10l-4 11-5 4h-26l-9-2-8-7-2-5v-8l3-6 6-5 10-4z" fill="#3C74F9"/>
<path transform="translate(1014,333)" d="m0 0 16 3-1 10-2 17-3 8-9 22-10 19-2 2-6-1-10-6 1-7 8-20 12-36 4-10z" fill="#E5A58C"/>
<path transform="translate(585,312)" d="m0 0 6 1v59h-12l-3-2-16-2-4-3 1-10 8-39 3-3 9 3 5-1z" fill="#FDFDFD"/>
<path transform="translate(396,232)" d="m0 0 13 1 32 8 12 5 1 5-6 15-8 14-3 5-4 1-1-1v-5l3-5 1-7-3-6-5-4-6-1-6 2-5 5-2 10h-2v3l-10-1-1-4z" fill="#E2E3E4"/>
<path transform="translate(494,211)" d="m0 0 10 2 23 7 2 2-1 9-3 6h-2l-2 6-8 14-3 2-17-5-18-6 1-6 8-16 6-11z" fill="#E5DBBB"/>
<path transform="translate(768,642)" d="m0 0h11l10 4 9 8 7 11 5 15 2 14v11l-2 14-3 10h-1l-2-6-9-9-1-7-1-2v-14l3-5 8-6 2-8-6 1-7 3-6-1-3-3-4-16h-2v-2h-2v-6h-3l-1 21h-1v-7l-2-1-3 1v2l-8 4h-5l-3-4 1-4 3-5h-1l-2 1 2-4 7-6z" fill="#7A8185"/>
<path transform="translate(456,268)" d="m0 0 5 2 1 3h2l4 4v2l5 1 14 4 31 6 26 6 10 4v9l-8 43-3 11-11-2-32-9-24-7-26-7-25-6-1-1 1-7 16-32 3-5 3-7 5-9h2v-2zm5 11-6 3-6 8-8 10-9 19-3 4v5l7 3 22 5 10 2 13 5 9 2 9 3 32 10h8l3-2 2-7v-4l1-7 1-5 3-10 1-14-3-5-18-6-20-5-9-2-13-2-8-2-8-1-5-4h-2z" fill="#E2E3E5"/>
<path transform="translate(462,353)" d="m0 0h7l24 7 15 4 16 6 9 2 15 3v1l-16 3-2 1-20 3-11 3-11 2-9 3-8 1v-3l29-10 7-2h5v-2l3-1h-7l-25 7-16 6-5-1-1-5v-27z" fill="#FCFCFC"/>
<path transform="translate(342,638)" d="m0 0h12l8 4 6 5 7 11 4 10 3 12 1 9v13l-3 17-2 6h-1v-7l-7-6-4-11-2-5 2-7 6-8 4-8-1-6-13 1-2-1-6-12-2-1-1-8-5-1-1 4-2 9-12 8h-4v-2l-4-1-5 3 1-5 6-10 6-7 8-5z" fill="#787F84"/>
<path transform="translate(717,740)" d="m0 0 3 2 3 10 7 13 8 11 5 4-1 5-10 5-9 3h-45l5-5 10-8 9-10 7-11 5-11 1-7z" fill="#010101"/>
<path transform="translate(773,648)" d="m0 0h3v6l5 2 4 16 5 3 7-1 7-3 2 1v4l-11 9-10 10-5 1-1-3h-9l-2 4-9-5-16-16-1-2v-6l6-10 8-6-2 4-3 5 1 5 3 1 4-1 7-2v-2h2l1-3 2 2z" fill="#7F8892"/>
<path transform="translate(1272,558)" d="m0 0 5 3 9 8 9 14 5 13 2 9 5 2v1h-5l-2 6-8 10h-8l-4-3v-2h-2l-4-6v-2l-3-1-3-4v-10l3-19z" fill="#BCD0FA"/>
<path transform="translate(911,569)" d="m0 0 9 1 8 7 5 9v8l-5 8-8 4-5 2-11-1-10-3-6-7-2-6 1-7 5-6 15-8z" fill="#E3E4E6"/>
<path transform="translate(1051,451)" d="m0 0 7 2 5 5 6 4v2l5 2 18 14 4 2 5 5 11 6 7 2h7l2-4 1 6 36 12 23 10 21 11 7 5v4l-10-4v-2l-7-2-9-4-13-6-11-4-15-6-15-5-21-5-16-4-7-2-106-1v-1h99l-1-5-3-1-10-15-11-9-7-3-4-6z" fill="#3D75FC"/>
<path transform="translate(736,131)" d="m0 0h10v1l-13 3-17 9-9 9-6 9-4 9-3 14 1 21 5 13 4 8 3 4v2h2l7 8 5 5v2h2v2l4 2v2l4 2 8 7v2l4 2 4 5-8-1-8-6-32-32-7-10-5-10-3-10-1-7v-8l3-15 4-9 6-10 6-7 12-9 12-5z" fill="#3F77FD"/>
<path transform="translate(1058,197)" d="m0 0 14 2 10 3 5-1 9 4 5 8 2 6 1 9-2 6-3 3h-15l-2-8-8-14-9-3h-7l-5 4-6 10-4-1-3-2 1-6 3-3 5-10 4-5z" fill="#2A353B"/>
<path transform="translate(404,286)" d="m0 0 10 1 15 4 1 4-4 8-6 9-12 23-7 12-3 3-2-2v-56l4-2v-2z" fill="#E3E4E6"/>
<path transform="translate(1043,749)" d="m0 0h18l-1 8 5 12v2h2l1 10-13 2-26 2h-14l-4-3 1-4 8-4 11-5h2v-2l5-4 1-2v-9l-2-1z" fill="#2D383F"/>
<path transform="translate(183,301)" d="m0 0 4 5-1 5 1 31 2 31 1 28v27l-1 24v12l9 1 16-1 5-2v-10l-4-37-3-32-3-46-3-23-1-9 2 1 3 13 2 15 5 67 5 50 1 7v8l-1 1-9 1h-27l-5-2 1-12 2-29v-72l-1-29z" fill="#95B5FF"/>
<path transform="translate(590,184)" d="m0 0 2 3 1 6v100l-1 6-8-1-63-16-3-2 1-6 10-18 10-19 5-8 3-3 6-9 5-4 13-13 8-7 7-7zm-6 9-11 11-2 1v2h-2v2l-4 2v2l-4 1-5 7v2h-2l-4 6-3 7-4 6-2 4v3h-2l-3 8-6 10-4 8 3 7 17 4 8 3 10 2 11 3 7 2 8 1 1-100-2-3z" fill="#DFDFDE"/>
<path transform="translate(293,506)" d="m0 0 11 1 24 4 1 3-14 15-11 10-10 6-9 1-1-4 3-22 3-10z" fill="#AC6B61"/>
<path transform="translate(741,671)" d="m0 0 2 3 7 8 9 9 9 5 4-4h5l2 4v9h-2l-1 3-6-2v-2l-7 2-7 6h-2v2l-8 7-3 1-1 6-2-3-3-11-1-7v-15l3-15z" fill="#7A8186"/>
<path transform="translate(764,704)" d="m0 0h6l1 2 4 1 1 2v41l-1 2-3-1-1-16-4 6h-10l-6-2-1 2-4-2-4-9v-6l10-10h2v-2z" fill="#7E8792"/>
<path transform="translate(494,135)" d="m0 0 13 1 2 1-1 8-5 9-2 1-14-1-16-4-29-7-8-2-2-1 1-3 5-1z" fill="#FDFDFD"/>
<path transform="translate(317,666)" d="m0 0h1l2 6 1 4h2l7 8 8 6 3 1 2-5 8 1 1 1v12l-3 2-11-1-8 6-5 5-5 6h-2v6l-2-4-3-14v-24z" fill="#787F84"/>
<path transform="translate(766,596)" d="m0 0h16l12 3 10 4v1l-35 1-8 2-9 4-10 7-9 10-6 10-7 15-5 17-2 11h-1v-12l1-14 4-15 8-16 8-10 7-7 12-7z" fill="#335CB7"/>
<path transform="translate(397,148)" d="m0 0 9 1 18 6-1 6-8 15-6 9-3 6h-2l-2 6-4 2-2-7v-43z" fill="#FDFDFD"/>
<path transform="translate(693,595)" d="m0 0h1l1 99v38l-2 3h-7l-2 1-8 1h-9v-2h-2l-1 3 12 2 11 1-2 3-13-2h-8l1 6-1 3-5 1v-2h-5l-4 4-9-6-1-3h-2v-2h7l1 4 8-1 2-3-49-1v-1l33-1 2-1 11-1 1-2 7-3 9-1-9-5 2-1 1-2h28z" fill="#356BF2"/>
<path transform="translate(1176,588)" d="m0 0h14l13 4 5 5-1 4-4 4-8 4-4 1h-17l-9-3-5-4v-6l4-5 7-3z" fill="#E2E3E6"/>
<path transform="translate(265,631)" d="m0 0 7 1 3 2v37h-31v-14l5 2 4 3-2-6-3-8 1-4 1-1 7 1 7 5 3 3v2h2l-4-12z" fill="#E2E3E5"/>
<path transform="translate(148,377)" d="m0 0 5 3 2 3-1 27-5 26-3 11h-2v2h-12l1-7 8-32 3-16v-13z" fill="#3E76FC"/>
<path transform="translate(408,92)" d="m0 0h13l24 1v1l-46 1v2l-3 3-1 2v279l-1 57-2 1v-321l1-17 4-6 3-2z" fill="#7B8186"/>
<path transform="translate(418,339)" d="m0 0 9 1 18 6 6 5 1 41 2 1-9 3v-17l1-12-2-13-6-4-11-4-5-1-5 1-2 6-3 6-2 1-1 5-6 17-2 5-2 18v10l-1 9v9l4 2-4 2h-3v-22l1-32 2-9h2l1-5 13-25z" fill="#E2E3E6"/>
<path transform="translate(156,302)" d="m0 0h1l2 26 1 18v22l-1 24-5 31-5 21-2 4-3-1h2l2-11 5-26 1-28-4-3h-3-2l-1 2-1-6v-9l2-6 5 1 1 1 1-2h2v-37l-1-4v-6l-1-3h-2l-3-3v-2z" fill="#366DF8"/>
<path transform="translate(745,288)" d="m0 0h7l7 3 5 6 1 3v7l-4 6-6 5-8 1-6-2-5-5-3-7 1-5 4-8z" fill="#366EFB"/>
<path transform="translate(440,157)" d="m0 0h9l35 9 10 4v6l-14 28-3 5-1 1h-9l-11-3-25-5-10-3-3-2 1-6 11-19 6-10zm5 3-5 2-7 11-8 14-1 8 6 3 22 5 13 3h6l4-4 4-7 5-8v-2h2l3-9-2-4-3-2-19-5-8-2z" fill="#E3E4E6"/>
<path transform="translate(894,700)" d="m0 0h26l9 7 9 8 7 6v1h-31l-7-1-11-15-2-3z" fill="#29343A"/>
<path transform="translate(289,304)" d="m0 0 7 1 5 5 3 12 1 5v8l-6 12-3 4-7-6-2-4-1-5-3-5-2-6v-5l4 2 3 2v-18z" fill="#AF6C62"/>
<path transform="translate(287,339)" d="m0 0 2 4 5 6 5 5-1 4-13 18-11 13-7 8-7 6-3 2h-6l-2-4v-6l4-4 4-1h5l9-9h2l2-4 5-5 3-9 2-5v-6l1-2-2-1v-2h-2v-4z" fill="#376EFA"/>
<path transform="translate(773,648)" d="m0 0h3v6l5 2 4 16 5 3 7-1 7-3 2 1v4l-11 9-10 10-5 1-1-3-6-1z" fill="#808993"/>
<path transform="translate(370,668)" d="m0 0h5l2 6-9 14-3 7 1 5 4 8 3 7 3 3v4l-3 1-6-4-10-8v-2h-2l-2-6v-18l5-6h2v-2l8-7z" fill="#7E8792"/>
<path transform="translate(980,413)" d="m0 0 9 1v2h6l11 6 7 2 5 5h7l17 11v2h3l4 5 6 4-4 1v3l2 4 5 1 5 4 9 8 7 11 3 5h-2l-7-8-17-16-12-10-11-8-21-14-21-12-11-6z" fill="#396DED"/>
<path transform="translate(362,721)" d="m0 0 6 3 6 2 3-1-1 5-9 14-8 7-5 2h-13l-10-6-7-8-4-8v-2h2l6 10 5 2 7 3 5 5h4l3-3v-15l6-8z" fill="#787F83"/>
<path transform="translate(404,239)" d="m0 0 10 1 9 1 20 5 3 5-1 7-1 3h-2l-1 3-4 2-1-3-4-2-6-4-11 1-3-2v-5l-6 2-2-2-1-11z" fill="#FCFCFB"/>
<path transform="translate(378,520)" d="m0 0 21 1 14 1 4 2-1 13-1 1h-17l-16-1-6-3v-9z" fill="#345DBB"/>
<path transform="translate(508,373)" d="m0 0h8l-1 2h-3v2l-15 4-20 7-6 1v3l13-3 7-3h8l-4 2-30 10-4 4-7 4h-3v2l-16 8-4-1 15-9 8-2v-2l6-1v-2l4-3-9 1-33 18-3-1 1-4 17-10 17-8 18-8 18-6z" fill="#A5C0FD"/>
<path transform="translate(119,478)" d="m0 0 3 1v9l-3 16-4 14-1 1h-7l-4-2-1-2v-24l2-7 7-3z" fill="#AE695E"/>
<path transform="translate(158,301)" d="m0 0h3l1 3 1 15 1 32v14l-1 26-4 30-6 27-5-1 2-11 5-25 3-19 1-26v-20l-2-35v-9z" fill="#29343A"/>
<path transform="translate(529,536)" d="m0 0 35 2 3 1v14l-1 1h-13l-18-1-7-2-1-1 1-13z" fill="#345CB8"/>
<path transform="translate(567,303)" d="m0 0 17 1 8 2 1 4v62l-2 1h-19l-18-6v-7l11-55zm18 9-5 4-11-2h-3l-3 11-7 34v6l4 3 16 2 3 2h12v-59z" fill="#DDDEDF"/>
<path transform="translate(473,247)" d="m0 0 12 6 19 6 3 2h-2l-2 9-4 2-8-1-16-4-7-5-1-6 3-7z" fill="#FDFDFD"/>
<path transform="translate(791,722)" d="m0 0 7 2 8 5-2 6-7 11-8 7h-4v-2l-7-1v-11l2-1 3-9 3-6z" fill="#7A8185"/>
<path transform="translate(1312,622)" d="m0 0h2l1 4v8l-3 10-8 6-15 6-11 3-1-3 30-30z" fill="#345CB8"/>
<path transform="translate(700,468)" d="m0 0 4 2 20 20 1 10h-15l-15-1 5-12 1-4v-10z" fill="#060809"/>
<path transform="translate(759,166)" d="m0 0h6l6 4 5 4 6 12v10l-4 10-5 5-6 5-9 2v-4l8-7 4-10v-13l-6-12-5-4z" fill="#4078FD"/>
<path transform="translate(684,463)" d="m0 0 8 3-1 6-11 4-21 4h-7l-3-3 1-6 7-6 2-1z" fill="#709BFD"/>
<path transform="translate(158,452)" d="m0 0 2 1 4 15v17l1 1 9 1 3-17 4-4 5 1h37l2 11 1 1 3-5h14l5 2 1 3v7h-7l-1 3v-2h-10l-7-1-2-12v-5h-43l-2 15-1 4-2 1h-10l-5-2 1-22z" fill="#366CF1"/>
<path transform="translate(401,210)" d="m0 0h10l17 4 19 5 9 4 1 5-2 1h-8l-5-2-11-2-27-6-4-3z" fill="#FDFDFD"/>
<path transform="translate(1118,433)" d="m0 0h2l1 8-7 2-5 2-14 2-17 3h-16l-9-2-4-2v-2l-7-2v-1l9 1h29l19-3 15-4z" fill="#345CB6"/>
<path transform="translate(731,301)" d="m0 0h2v4l-9 1-48 1h-75l1-4h37l56-1z" fill="#D7B72F"/>
<path transform="translate(594,307)" d="m0 0h6l1 1v64h-7z" fill="#29343A"/>
<path transform="translate(1151,743)" d="m0 0 31 1-3 5-11 7-11 2-11-4-10-8v-2z" fill="#676E74"/>
<path transform="translate(520,369)" d="m0 0 6 2 19 3 3 2-16 3-2 1-20 3-11 3-11 2-9 3-8 1v-3l29-10 7-2h5v-2l3-1-4-2 7-1z" fill="#CED9F0"/>
<path transform="translate(768,642)" d="m0 0h3v2l9 2-1 2h-6l-1 21h-1v-7l-2-1-3 1v2l-8 4h-5l-3-4 1-4 3-5h-1l-2 1 2-4 7-6z" fill="#7A8185"/>
<path transform="translate(1147,504)" d="m0 0 7 1 28 11 22 11 11 7 1 5-10-4v-2l-7-2-9-4-13-6-11-4-15-6-2-1v-2l-5-1-3-2z" fill="#3C72FB"/>
<path transform="translate(1082,488)" d="m0 0h2l1 5-146 1-178-1v-1l322-1z" fill="#3664D1"/>
<path transform="translate(205,305)" d="m0 0 2 1 3 13 2 15 5 67 5 50 1 7v8l-2 1-1-14-1-1-4-37-3-32-3-46-3-23z" fill="#87ACFF"/>
<path transform="translate(700,162)" d="m0 0 1 3-3 8-2 11v16l2 10 6 12 6 9 7 6 4 4v2l4 2 5 6 7 6v2l4 2 10 7 7 1v3l-11 1-6-7-8-7-6-5-4-4v-2h-2l-7-8-5-5v-2h-2l-6-9-4-10-3-8-1-21 3-14z" fill="#729DFE"/>
<path transform="translate(592,99)" d="m0 0h1l1 5 1 197 5 2 2 4-2 1-6-1v65h-1l-1-65 1-5-2-3 1-6z" fill="#7A8085"/>
<path transform="translate(462,353)" d="m0 0h7l24 7 15 4 12 4v1h-9l-5-2-11-2-13-4-13-2-2 4v12l-1 9 3 1-2 2-5-1-1-5v-27z" fill="#E3E4E6"/>
<path transform="translate(1162,291)" d="m0 0 1 2h2l1 6-5 14-3 3h-2l-1 5-5 5v12l-8-2-2-1 1-7 8-14 6-4 6-16z" fill="#E5D7B8"/>
<path transform="translate(771,733)" d="m0 0h1l1 21 5 4h-8l-8-3-8-6-6-7 3-3h5l1 1h10z" fill="#7A8185"/>
<path transform="translate(156,304)" d="m0 0h1l1 7 2 35v22l-1 24-5 31-5 21-2 4-3-1h2l2-11 5-26 3-25 1-27-1-39z" fill="#3562CC"/>
<path transform="translate(352,698)" d="m0 0h1l2 11h2l5 5 9 7 5 1-2-5-2-4 6 5-1 7-4 2-5-2-6-3-5 3-4 6h-2l-1-20-2-6 3-1z" fill="#7E8792"/>
<path transform="translate(993,214)" d="m0 0 4 1 1 5-8 9-5 7-3 2-6-1-8-7-2-5 1-1h5l5 4 5-1 9-10z" fill="#F7F6F3"/>
<path transform="translate(284,219)" d="m0 0 5 1 1 3-3 5h-2l-2 5-9 10-5-1-6-4-5-6v-3l5-1 6 5 5-1 8-10z" fill="#E3E2DF"/>
<path transform="translate(161,302)" d="m0 0 4 2v23l1 18v27l-2 27-5 30-4 16 1 4 1 2-4-2v-7l5-21 4-30 1-26v-14l-1-32z" fill="#3560C5"/>
<path transform="translate(342,598)" d="m0 0h16v1l-14 1-14 4-10 7-9 9-9 16-6 16-4 21-1 8v29l-2-1-1-8v-13l3-26 5-18 6-16 3-4 4-7 10-10 8-5 9-3z" fill="#3560C5"/>
<path transform="translate(124,451)" d="m0 0h1v10l-3 14-4 3-11 4h-5l-1-2v-10l10-2 4-2 5 1 1-4h2v-9z" fill="#356AEE"/>
<path transform="translate(1180,264)" d="m0 0h1v12l-3 27-4 18-4-8 2-5 2-1-1-8h-2l-1-9 8-18z" fill="#E5DBBB"/>
<path transform="translate(183,301)" d="m0 0 4 5-1 5 1 49v57l-2 22h-1v-86l-1-29z" fill="#729DFF"/>
<path transform="translate(804,676)" d="m0 0 2 1-2 4-8 6-2 6v13l2 5-2 2-7-7-7-4-1 2-1-11 2 2 5-1 11-11z" fill="#7D8691"/>
<path transform="translate(320,666)" d="m0 0 6 2 6 5 5 6 5 5 1 4-2 4-6-3-8-7v-2l-4-2v-2h-2l-2-4v-5z" fill="#8F9398"/>
<path transform="translate(1043,749)" d="m0 0h18l-3 13-1 1-7-1-10-2-1-8-2-1z" fill="#D8BA46"/>
<path transform="translate(334,595)" d="m0 0 16 1 3 2-17 2-11 4-9 7-9 10-3 6-5 12-4 11h-1l1-8 4-12 4-9 3-6h3l1-4 7-6 3-3z" fill="#356DFB"/>
<path transform="translate(346,706)" d="m0 0 3 1 2 4v25l-2 10-4-1-1-11v-20z" fill="#8F9398"/>
<path transform="translate(508,373)" d="m0 0h8l-1 2h-3v2l-15 4-20 7-8 3-2 2-6 1-1-2 5-5 18-7z" fill="#9EBCFE"/>
<path transform="translate(780,702)" d="m0 0 5 2 8 7 13 13v5l-6-2-10-8-10-9-1-6z" fill="#8E9297"/>
<path transform="translate(338,700)" d="m0 0h4l-1 6-2 5-9 7-4 5-5 2-2-2v-5l6-7 5-5z" fill="#8F9398"/>
<path transform="translate(743,669)" d="m0 0 11 7 13 13 3 2-1 5-2 1-10-7-14-14-1-6z" fill="#909499"/>
<path transform="translate(346,645)" d="m0 0 4 1 1 12v20l-3 8h-4v-24l1-14z" fill="#8F9398"/>
<path transform="translate(751,162)" d="m0 0h11l10 6 8 9 4 10v10l-4 10-5 5-8 6-9 3-6-1v-3l5-1 3 1 8-3 7-5 5-10 1-3v-10l-6-12-8-6-2-1h-7l-7-3z" fill="#729DFF"/>
<path transform="translate(370,668)" d="m0 0h5l1 4-7 8-3 4h-2l-2 4-3 3-6 1v-7l5-6h2v-2l8-7z" fill="#8F9398"/>
<path transform="translate(353,698)" d="m0 0 6 2 13 13 4 5v4l-3 1-6-4-10-8v-2h-2l-2-6z" fill="#8F9398"/>
<path transform="translate(158,452)" d="m0 0 2 1 4 15v17l1 1 9 1 3-17 4-4 5 1h35v2h-42l-2 15-1 4-2 1h-10l-5-2 1-22z" fill="#3561C6"/>
<path transform="translate(980,404)" d="m0 0 7 2 10 6 5 2 3 3 15 9 3 3-5 1-5-4v-2l-7-1-11-6-6-1v-2l-7-1z" fill="#487EFD"/>
<path transform="translate(803,671)" d="m0 0 3 1v4l-11 9-10 10-5 1-2-5 1-2 5-3 14-13z" fill="#8E9297"/>
<path transform="translate(533,215)" d="m0 0 5 1 2 1v6l-9 16-3 3-2 4-3-1 1-8 6-12 2-7-2-1z" fill="#C0D0EF"/>
<path transform="translate(1043,743)" d="m0 0h19v5l-1 1-11 1h-7l-10 1-3-5 2-2z" fill="#3868D7"/>
<path transform="translate(740,291)" d="m0 0 1 2 5 1 3 2h-2l-2 4-4 1-2-1 1 5h1l1 7h2v3h2v2l5 1-4 1-6-2-5-5-3-7 1-5 4-8z" fill="#457BFD"/>
<path transform="translate(305,493)" d="m0 0h6v5l4 6v2l-5 1-13-2-2-1 1-6 6-4z" fill="#386FFB"/>
<path transform="translate(1018,381)" d="m0 0 1 3-10 21-6 9-6-1 3-3v-5l3-5 3-1v-4l5-3h3v-2h-2l1-6z" fill="#E5DABC"/>
<path transform="translate(993,388)" d="m0 0 4 1v2h5l-2 8-2 1v4h-3v7l-5-2-3-2 1-7z" fill="#E4DABB"/>
<path transform="translate(205,305)" d="m0 0 2 1 3 13 2 15 4 51v16h-1l-2-21v-14h-2l-2-29-3-23z" fill="#7AA2FF"/>
<path transform="translate(772,708)" d="m0 0 4 1v41l-1 2-3-1z" fill="#A9ACAE"/>
<path transform="translate(736,131)" d="m0 0h10v1l-13 3-17 9-2 2h-4l-1 3-4 1-2-2 5-6 10-6 13-4z" fill="#3A71FB"/>
<path transform="translate(1312,622)" d="m0 0h2l1 4v8l-3 10-8 6-15 6-4-1 14-5 11-7 1-13-3-2-26 26v-3l25-25z" fill="#3564D1"/>
<path transform="translate(710,691)" d="m0 0h1l1 25 2 5 3 16v3h-9z" fill="#345CB9"/>
<path transform="translate(764,704)" d="m0 0h5l-1 6-4 2v2l-7 6-4 1-6 5-1-4 7-8 5-5z" fill="#8F9398"/>
<path transform="translate(609,513)" d="m0 0h13l73 3v1h-19v2l-48-3-19-2z" fill="#3562CA"/>
<path transform="translate(654,742)" d="m0 0h10l1 6-1 3-5 1v-2h-5l-4 4-9-6-1-3h-2v-2h7l1 4 8-1 2-3z" fill="#686F74"/>
<path transform="translate(1270,557)" d="m0 0 2 1v19l-3 19v10l7 8 2 5h2l4 4 6 1-3 3-5-1-5-5-2-4-2-1-1-3-2-1v-3h-2l-3-9 2-5 3-24z" fill="#7FA6FF"/>
<path transform="translate(1316,616)" d="m0 0h2l1 5v13l-1 9-3 3-8 2 5-6 2-8v-12h-2l1-4z" fill="#386FFB"/>
<path transform="translate(503,378)" d="m0 0h7l-3 4-10 2-2 2-10 3-9 3h-5v-3l29-10z" fill="#E2E3E6"/>
<path transform="translate(512,507)" d="m0 0h1l-1 62-1 16h-1l-1-34 1-33z" fill="#356DFB"/>
<path transform="translate(772,692)" d="m0 0h5l2 4v9h-2l-1 3-6-2-2-7 2-6z" fill="#29343A"/>
<path transform="translate(1082,488)" d="m0 0h2l1 5h-110v-1l108-1z" fill="#3561C7"/>
<path transform="translate(1115,459)" d="m0 0h2l3 4 2 13h-3v6l-3-1-3-9-1-1v-7l1-3h2z" fill="#345CB7"/>
<path transform="translate(420,264)" d="m0 0h6l3 3v7l-3 3h-7l-2-3v-7z" fill="#E5E5E4"/>
<path transform="translate(1048,456)" d="m0 0 4 2 6 2 5 4 9 8 7 11 3 5h-2l-7-8-17-16-8-7z" fill="#3568E6"/>
<path transform="translate(260,228)" d="m0 0 4 1 5 4v2l6 1 1 3-2 4-5-1-6-4-5-6v-3z" fill="#F7F5F1"/>
<path transform="translate(158,372)" d="m0 0h1v20l-5 31-5 21-2 4-3-1h2l2-11 5-26h2v-8l2-12z" fill="#365EBB"/>
<path transform="translate(1163,744)" d="m0 0h19l-3 5-11 7-3-1 1-2-2-7z" fill="#676E74"/>
<path transform="translate(98,420)" d="m0 0h1v10l-4 10-3 7h-5l1-6 9-20z" fill="#2E393F"/>
<path transform="translate(865,562)" d="m0 0 6 1-2 1-1 5v17l1 7h-3l-3-9v-13z" fill="#EAEBED"/>
<path transform="translate(1114,435)" d="m0 0 2 1-7 3-22 5-14 1h-24l-7-3v-1l9 1h29l19-3z" fill="#7A777A"/>
<path transform="translate(397,97)" d="m0 0h15l1 2h-2v2l-9 6-6 2v-11z" fill="#FCFCFC"/>
<path transform="translate(537,93)" d="m0 0h49l6 4-1 2-8-3h-45l-3 3z" fill="#A4A7A9"/>
<path transform="translate(591,372)" d="m0 0 2 1-1 1-40 4-16 2h-6l2-2 24-4z" fill="#81A7FF"/>
<path transform="translate(183,301)" d="m0 0 4 5-1 5v49h-1l-1-7-1-29z" fill="#729DFF"/>
<path transform="translate(1160,597)" d="m0 0h1l1 5 7 3 8 1h18l5-2 3 1-8 4-4 1h-17l-9-3-5-4z" fill="#A8ABAB"/>
<path transform="translate(1116,738)" d="m0 0h7l7 4 21 1v1h-46l4-2 1-2z" fill="#3466E0"/>
<path transform="translate(346,688)" d="m0 0 5 1 1 1v10l-3 2-5-1-1-6 1-6z" fill="#29343A"/>
<path transform="translate(717,640)" d="m0 0 3 1-2 10-2 14-3 16h-1v-12l1-14z" fill="#3564D0"/>
<path transform="translate(558,346)" d="m0 0 1 4-2 9v6l3 2 16 2 3 2 12 1v1h-19l-18-6v-7l3-13z" fill="#E3E4E6"/>
<path transform="translate(1176,588)" d="m0 0h14l13 4 5 5-1 4-2 3h-2v-2h2l-1-5-3-3-8-3h-14l-12 2-4 1 3-3z" fill="#8AAEFE"/>
<path transform="translate(512,219)" d="m0 0 10 1 4 4v3l-4 2-7-1-4-5z" fill="#D8B82F"/>
<path transform="translate(533,284)" d="m0 0h8l13 4 10 2 11 3 7 2 9 1v3l-7-1-51-13z" fill="#E4E0D3"/>
<path transform="translate(1156,744)" d="m0 0h7l3 3 1 7-4 1-7-1-1-8z" fill="#7E858C"/>
<path transform="translate(321,676)" d="m0 0h2l7 8 8 6 3 3h-3v2l-5 1-3-7v-2l-5-1-1-3h-2z" fill="#7F8893"/>
<path transform="translate(746,131)" d="m0 0h6l-2 2-16 4-9 4-13 9-7 9-3 1 2-4 9-10 5-4 15-8z" fill="#729DFF"/>
<path transform="translate(521,373)" d="m0 0 15 1 1 2-4 2-12 1h-7l2-4z" fill="#FBFBFB"/>
<path transform="translate(670,740)" d="m0 0 17 1-2 3-13-2h-65v-1z" fill="#385FB8"/>
<path transform="translate(162,463)" d="m0 0 5 5v5h2l-2 11h2v2l3 1h-7l-2-2v-17z" fill="#356DFB"/>
<path transform="translate(508,373)" d="m0 0h8l-1 2h-3v2l-15 4-9 3-3-1 5-2h3l1-4z" fill="#AEC6FC"/>
<path transform="translate(225,774)" d="m0 0 1 3 9 1 3 3v2l-4 1v3l-4-1-6-5v-6z" fill="#A3BAEB"/>
<path transform="translate(342,598)" d="m0 0h16v1l-14 1-14 4-10 7-9 9v-3l14-14 11-4z" fill="#3460C3"/>
<path transform="translate(773,648)" d="m0 0h3l-1 42-2-1z" fill="#C5C6C3"/>
<path transform="translate(520,369)" d="m0 0 6 2 19 3 3 2-11 2-4-1 3-2-15-1-4 1v-3l-2-1 5-1z" fill="#D5DDED"/>
<path transform="translate(709,712)" d="m0 0h1v20h4v2h2l1 6h-9z" fill="#3564D1"/>
<path transform="translate(751,162)" d="m0 0h11l10 6 5 5-1 2-9-7-2-1h-7l-7-3z" fill="#739EFE"/>
<path transform="translate(638,743)" d="m0 0h7l1 4h7l-1 5-2 2-9-6-1-3h-2z" fill="#656C71"/>
<path transform="translate(288,676)" d="m0 0h1v33l-3-3-1-7 1-12 1-10z" fill="#356DFB"/>
<path transform="translate(740,291)" d="m0 0 1 2 5 1 3 2h-2l-2 4-4 1-5-2 1-5z" fill="#3E76FC"/>
<path transform="translate(993,214)" d="m0 0 4 1 1 5-4 3-3-3v2h-2l-2 4-3 3-3-1 10-11z" fill="#E5E3DE"/>
<path transform="translate(782,645)" d="m0 0 7 1 9 8 4 6-1 3-3-3v-2h-2v-2l-4-2-10-8z" fill="#7B848D"/>
<path transform="translate(460,400)" d="m0 0 3 1-9 5h-3v2l-16 8-4-1 15-9 8-2v-2z" fill="#90B2FD"/>
<path transform="translate(277,382)" d="m0 0 2 1-9 11-7 7-4 2 1-4 6-7 7-6z" fill="#487EFD"/>
<path transform="translate(488,88)" d="m0 0 4 1 5 4-1 3-9 1-1-1v-6z" fill="#767C82"/>
<path transform="translate(181,287)" d="m0 0 2 4 1 9h2l1 4h2l1 2 5 1v2l8 2v2l-3 1-8-4-7-5-3-7z" fill="#B89D95"/>
<path transform="translate(749,740)" d="m0 0 5 3 5 6 10 6v1h-6l-9-7-6-7z" fill="#7A838C"/>
<path transform="translate(319,607)" d="m0 0 2 1-10 10-3 7-7 13-1-4 3-7 6-10z" fill="#3562CA"/>
<path transform="translate(491,386)" d="m0 0h8l-4 2-21 7-5 2h-3v-2l13-5 9-3z" fill="#88ACFE"/>
<path transform="translate(752,714)" d="m0 0v3l-5 5v3l8-6v3l-8 7-5 1v-6l5-5z" fill="#8E9297"/>
<path transform="translate(205,305)" d="m0 0 2 1 3 13 1 15-2 3-3-23z" fill="#83A8FF"/>
<path transform="translate(122,472)" d="m0 0 2 4-1 14-2 3v-14l-10 3-8 2v-2l17-6z" fill="#7E858C"/>
<path transform="translate(334,699)" d="m0 0 4 2-8 6-5 5-5 6-1-2 4-6h2l1-3 3-5z" fill="#7F8893"/>
<path transform="translate(402,94)" d="m0 0h45l2 6h-2l-2-4h-46z" fill="#BEC0BD"/>
<path transform="translate(181,466)" d="m0 0 5 1h35v2h-41z" fill="#7B838B"/>
<path transform="translate(953,198)" d="m0 0v3l-8 16-3 11h-1v-7l5-14z" fill="#5485FB"/>
<path transform="translate(742,715)" d="m0 0 7 2-4 5h-2l-1 6-2-3-1-9 3 1z" fill="#7C858E"/>
<path transform="translate(218,434)" d="m0 0h1v8h2l2 16v8l-2 1-1-14-1-1-1-8z" fill="#7EA5FF"/>
<path transform="translate(503,378)" d="m0 0h7l-3 4-11 2h-5v-2z" fill="#F9F9FA"/>
<path transform="translate(404,292)" d="m0 0h3l1 3 8 2-1 4h-8l-2-2-2-5z" fill="#FDFDFD"/>
<path transform="translate(1034,740)" d="m0 0 7 1 5-1 1 2 3-1 2 2-21 2v-3z" fill="#356DFB"/>
<path transform="translate(1043,749)" d="m0 0h18l-2 3-6 2h-3v-2l-12-1v-1z" fill="#C49D91"/>
<path transform="translate(756,713)" d="m0 0 2 1-2 5-9 7-1-4 7-7z" fill="#C5C6C3"/>
<path transform="translate(767,600)" d="m0 0h21l8 2v1h-21v-1l-8-1z" fill="#3665D3"/>
<path transform="translate(1190,589)" d="m0 0 8 1 6 3 4 4-1 4-2 3h-2v-2h2l-1-5-3-3-11-4z" fill="#97AFE4"/>
<path transform="translate(676,517)" d="m0 0h23v3l-23-1z" fill="#315195"/>
<path transform="translate(1053,229)" d="m0 0 5 3v4l2 3 4 2-3 1-1 2-6-8z" fill="#E6DBBB"/>
<path transform="translate(115,473)" d="m0 0 4 1-1 4-8 3h-6l-1-4h11l2-1z" fill="#3C75FB"/>
<path transform="translate(567,369)" d="m0 0h9l3 2 12 1v1h-19l-5-2z" fill="#DDE1E9"/>
<path transform="translate(1058,753)" d="m0 0h1l-1 9-1 1-7-1-1-2h5l1-5z" fill="#E0CDAE"/>
<path transform="translate(184,303)" d="m0 0 3 4-1 4v31h-1l-1-21z" fill="#97B7FF"/>
<path transform="translate(358,546)" d="m0 0h1l2 19v7l-2-2-1-5z" fill="#356DFB"/>
<path transform="translate(673,460)" d="m0 0h16l7 2 5 6-2 2-3-4v-2l-8-2-15-1z" fill="#345FC0"/>
<path transform="translate(1300,603)" d="m0 0 3 3 4 2h-5l-2 6-8 10-2-1 8-10z" fill="#87ABFF"/>
<path transform="translate(1276,618)" d="m0 0 4 1 4 4 6 1-3 3-5-1-5-5z" fill="#729AF6"/>
<path transform="translate(1265,600)" d="m0 0h3l2 7 6 7 2 5-5-3-1-3-2-1v-3h-2z" fill="#7FA4F8"/>
<path transform="translate(762,493)" d="m0 0 2 1 2 11 2 1-12-1v-1h6l-1-6z" fill="#356DFB"/>
<path transform="translate(470,389)" d="m0 0 1 3 2 1-7 2-2 5-4-1 4-3-6-1v-1l9-2z" fill="#B7CDFB"/>
<path transform="translate(291,364)" d="m0 0 2 1-10 14-1-3v-4l8-7z" fill="#487EFD"/>
<path transform="translate(771,642)" d="m0 0h8l8 3-3 1h-8l-5-2z" fill="#7B828A"/>
<path transform="translate(795,600)" d="m0 0 9 3v1h-28v-1l15-1 5 1z" fill="#345DBB"/>
<path transform="translate(1147,504)" d="m0 0 5 1 3 5-10-2-4-3z" fill="#366EFB"/>
<path transform="translate(294,503)" d="m0 0 16 3v3l-17-3z" fill="#3F76F8"/>
<path transform="translate(592,300)" d="m0 0 5 2 4 1 1 5-9-1v-5z" fill="#A56A61"/>
<path transform="translate(435,275)" d="m0 0h2l1 7-4 1 2 2h-4v-5z" fill="#C5CEDF"/>
<path transform="translate(488,90)" d="m0 0 4 1 1 4-1 1h-6l1-5z" fill="#D5D6D6"/>
<path transform="translate(528,550)" d="m0 0h8l3 1 14 1v1h-18l-7-2z" fill="#3665D3"/>
<path transform="translate(1013,423)" d="m0 0 5 2 5 3-2 2-5-1-3-3z" fill="#4A7FFD"/>
<path transform="translate(460,400)" d="m0 0 3 1-9 5h-3v2l-4 1 1-3 6-2v-2z" fill="#7FA6FE"/>
<path transform="translate(757,290)" d="m0 0 6 5 1 4-5-1v-2l-3-1z" fill="#437AFD"/>
<path transform="translate(509,381)" d="m0 0h5l-4 2-11 3-4-1 5-3z" fill="#C8D6F3"/>
<path transform="translate(191,307)" d="m0 0h4v2l8 2v2l-3 1-8-4z" fill="#DFA18A"/>
<path transform="translate(736,131)" d="m0 0h10v1l-13 3-4 1 2-4z" fill="#487EFD"/>
<path transform="translate(153,410)" d="m0 0h1v13l-1 3h-2v-7z" fill="#3562C9"/>
<path transform="translate(508,373)" d="m0 0h8l-1 2h-3v2h-8l1-2h3z" fill="#9FBDFE"/>
<path transform="translate(296,198)" d="m0 0 4 2 5 5 4 7-1 2-7-10z" fill="#5789FD"/>
<path transform="translate(782,645)" d="m0 0 7 1 4 4-1 2-8-4z" fill="#858B92"/>
<path transform="translate(864,585)" d="m0 0 4 1 1 7h-3l-2-4z" fill="#E3E4E6"/>
<path transform="translate(1160,597)" d="m0 0h1l1 5 8 4v2l-5-1-5-4z" fill="#ABAEAD"/>
<path transform="translate(335,641)" d="m0 0 2 1-12 12v-3l6-7z" fill="#6E757A"/>
<path transform="translate(738,617)" d="m0 0h3l-2 4-4 5h-2l1-4 2-3h2z" fill="#3562CB"/>
<path transform="translate(1053,215)" d="m0 0 1 2-3 5-1 5h-4l-1 2v-3h2l2-5z" fill="#9D6C65"/>
<path transform="translate(115,773)" d="m0 0h2l-1 6-3 1v-5z" fill="#6492FE"/>
<path transform="translate(1029,759)" d="m0 0 3 1-1 5h-3z" fill="#6593FE"/>
<path transform="translate(961,192)" d="m0 0h2v2l-3 1z" fill="#457CFD"/>
<path transform="translate(311,219)" d="m0 0" fill="#729DFF"/>
<path transform="translate(310,216)" d="m0 0" fill="#729DFF"/>
<path transform="translate(309,214)" d="m0 0" fill="#3D76FD"/>
<path transform="translate(294,197)" d="m0 0 2 1z" fill="#729DFF"/>
<path transform="translate(313,233)" d="m0 0" fill="#729DFF"/>
</svg>
