<svg width="34" height="33" viewBox="0 0 34 33" fill="none" xmlns="http://www.w3.org/2000/svg">
<path d="M18.2764 7.405C18.1167 6.90651 18.1526 6.36595 18.3766 5.89289H7.86612L7.64927 5.89879C6.67246 5.95418 5.75388 6.38125 5.08195 7.09241C4.41003 7.80356 4.0357 8.74487 4.03577 9.72325V9.94011L17.0001 16.6815L25.2831 12.375H20.2411C19.7901 12.3752 19.3515 12.2275 18.9924 11.9546C18.6334 11.6817 18.3736 11.2987 18.253 10.8641C18.1324 10.4295 18.1576 9.96741 18.3246 9.5485C18.4917 9.12958 18.7915 8.77698 19.1781 8.54468C18.7499 8.28593 18.4297 7.88118 18.2764 7.405ZM29.1146 12.375L17.4078 18.4624C17.2819 18.5278 17.142 18.562 17.0001 18.562C16.8581 18.562 16.7182 18.5278 16.5923 18.4624L4.03577 11.9319V23.2768L4.04166 23.4937C4.09705 24.4705 4.52413 25.3891 5.23528 26.061C5.94643 26.7329 6.88775 27.1072 7.86612 27.1072H26.134L26.352 27.1013C27.3286 27.0456 28.2469 26.6184 28.9186 25.9073C29.5903 25.1962 29.9644 24.255 29.9643 23.2768V12.375H29.1146ZM19.3572 3.24111C19.3572 3.00667 19.4503 2.78184 19.6161 2.61607C19.7819 2.45031 20.0067 2.35718 20.2411 2.35718H30.259C30.3751 2.35718 30.49 2.38004 30.5972 2.42446C30.7045 2.46888 30.8019 2.53399 30.884 2.61607C30.9661 2.69815 31.0312 2.7956 31.0756 2.90284C31.12 3.01008 31.1429 3.12503 31.1429 3.24111C31.1429 3.35719 31.12 3.47213 31.0756 3.57937C31.0312 3.68661 30.9661 3.78406 30.884 3.86614C30.8019 3.94822 30.7045 4.01333 30.5972 4.05775C30.49 4.10217 30.3751 4.12503 30.259 4.12503H20.2411C20.0067 4.12503 19.7819 4.03191 19.6161 3.86614C19.4503 3.70037 19.3572 3.47554 19.3572 3.24111ZM20.2411 5.89289C20.0067 5.89289 19.7819 5.98602 19.6161 6.15179C19.4503 6.31756 19.3572 6.54239 19.3572 6.77682C19.3572 7.01125 19.4503 7.23608 19.6161 7.40185C19.7819 7.56762 20.0067 7.66075 20.2411 7.66075H30.259C30.4934 7.66075 30.7182 7.56762 30.884 7.40185C31.0498 7.23608 31.1429 7.01125 31.1429 6.77682C31.1429 6.54239 31.0498 6.31756 30.884 6.15179C30.7182 5.98602 30.4934 5.89289 30.259 5.89289H20.2411ZM19.3572 10.3125C19.3572 10.0781 19.4503 9.85327 19.6161 9.6875C19.7819 9.52173 20.0067 9.42861 20.2411 9.42861H30.259C30.4934 9.42861 30.7182 9.52173 30.884 9.6875C31.0498 9.85327 31.1429 10.0781 31.1429 10.3125C31.1429 10.547 31.0498 10.7718 30.884 10.9376C30.7182 11.1033 30.4934 11.1965 30.259 11.1965H20.2411C20.0067 11.1965 19.7819 11.1033 19.6161 10.9376C19.4503 10.7718 19.3572 10.547 19.3572 10.3125Z" fill="#545454"/>
</svg>
