<svg width="25" height="24" viewBox="0 0 25 24" fill="none" xmlns="http://www.w3.org/2000/svg">
<g clip-path="url(#clip0_1914_2263)">
<path d="M14.5533 13.8164C13.8658 13.2305 13.1041 12.7812 12.2682 12.4688C11.4323 12.1562 10.5651 12 9.66663 12C8.97913 12 8.31506 12.0898 7.67444 12.2695C7.03381 12.4492 6.43616 12.6992 5.88147 13.0195C5.32678 13.3398 4.82288 13.7305 4.36975 14.1914C3.91663 14.6523 3.526 15.1602 3.19788 15.7148C2.86975 16.2695 2.61584 16.8672 2.43616 17.5078C2.25647 18.1484 2.16663 18.8125 2.16663 19.5H0.666626C0.666626 18.5625 0.803345 17.6602 1.07678 16.793C1.35022 15.9258 1.74475 15.125 2.26038 14.3906C2.776 13.6562 3.38538 13.0039 4.0885 12.4336C4.79163 11.8633 5.5885 11.4141 6.47913 11.0859C5.59631 10.5078 4.90881 9.78125 4.41663 8.90625C3.92444 8.03125 3.67444 7.0625 3.66663 6C3.66663 5.17188 3.82288 4.39453 4.13538 3.66797C4.44788 2.94141 4.87366 2.30469 5.41272 1.75781C5.95178 1.21094 6.5885 0.78125 7.32288 0.46875C8.05725 0.15625 8.8385 0 9.66663 0C10.4948 0 11.2721 0.15625 11.9987 0.46875C12.7252 0.78125 13.3619 1.20703 13.9088 1.74609C14.4557 2.28516 14.8854 2.92188 15.1979 3.65625C15.5104 4.39062 15.6666 5.17188 15.6666 6C15.6666 6.51562 15.6041 7.01953 15.4791 7.51172C15.3541 8.00391 15.1666 8.46875 14.9166 8.90625C14.6666 9.34375 14.3737 9.74609 14.0377 10.1133C13.7018 10.4805 13.3073 10.8047 12.8541 11.0859C13.3619 11.2812 13.8463 11.5195 14.3073 11.8008C14.7682 12.082 15.2018 12.3984 15.608 12.75L14.5533 13.8164ZM5.16663 6C5.16663 6.625 5.28381 7.20703 5.51819 7.74609C5.75256 8.28516 6.07288 8.76172 6.47913 9.17578C6.88538 9.58984 7.36194 9.91406 7.90881 10.1484C8.45569 10.3828 9.04163 10.5 9.66663 10.5C10.2838 10.5 10.8658 10.3828 11.4127 10.1484C11.9596 9.91406 12.4362 9.59375 12.8424 9.1875C13.2487 8.78125 13.5729 8.30469 13.8151 7.75781C14.0573 7.21094 14.1744 6.625 14.1666 6C14.1666 5.38281 14.0494 4.80078 13.8151 4.25391C13.5807 3.70703 13.2604 3.23047 12.8541 2.82422C12.4479 2.41797 11.9674 2.09375 11.4127 1.85156C10.858 1.60938 10.276 1.49219 9.66663 1.5C9.04163 1.5 8.45959 1.61719 7.92053 1.85156C7.38147 2.08594 6.90491 2.40625 6.49084 2.8125C6.07678 3.21875 5.75256 3.69922 5.51819 4.25391C5.28381 4.80859 5.16663 5.39062 5.16663 6ZM20.9166 9C21.4323 9 21.9166 9.09766 22.3698 9.29297C22.8229 9.48828 23.2174 9.75781 23.5533 10.1016C23.8893 10.4453 24.1588 10.8438 24.3619 11.2969C24.5651 11.75 24.6666 12.2344 24.6666 12.75C24.6666 13.2656 24.569 13.75 24.3737 14.2031C24.1783 14.6562 23.9088 15.0547 23.5651 15.3984C23.2213 15.7422 22.8229 16.0117 22.3698 16.207C21.9166 16.4023 21.4323 16.5 20.9166 16.5C20.7369 16.5 20.5612 16.4883 20.3893 16.4648L13.5104 23.3438C13.2994 23.5547 13.0573 23.7148 12.7838 23.8242C12.5104 23.9336 12.2213 23.9922 11.9166 24C11.6041 24 11.3112 23.9414 11.0377 23.8242C10.7643 23.707 10.526 23.5469 10.3229 23.3438C10.1198 23.1406 9.95959 22.9023 9.84241 22.6289C9.72522 22.3555 9.66663 22.0625 9.66663 21.75C9.66663 21.4531 9.72131 21.168 9.83069 20.8945C9.94006 20.6211 10.1041 20.375 10.3229 20.1562L17.2018 13.2773C17.1783 13.1055 17.1666 12.9297 17.1666 12.75C17.1666 12.2344 17.2643 11.75 17.4596 11.2969C17.6549 10.8438 17.9205 10.4492 18.2565 10.1133C18.5924 9.77734 18.9908 9.50781 19.4518 9.30469C19.9127 9.10156 20.401 9 20.9166 9ZM20.9166 15C21.2291 15 21.5221 14.9414 21.7955 14.8242C22.069 14.707 22.3073 14.5469 22.5104 14.3438C22.7135 14.1406 22.8737 13.9023 22.9908 13.6289C23.108 13.3555 23.1666 13.0625 23.1666 12.75C23.1666 12.4297 23.0924 12.1094 22.944 11.7891L21.233 13.5H20.1666V12.4336L21.8776 10.7227C21.5573 10.5742 21.2369 10.5 20.9166 10.5C20.6041 10.5 20.3112 10.5586 20.0377 10.6758C19.7643 10.793 19.526 10.9531 19.3229 11.1562C19.1198 11.3594 18.9596 11.5977 18.8424 11.8711C18.7252 12.1445 18.6666 12.4375 18.6666 12.75C18.6666 13.0703 18.7408 13.3906 18.8893 13.7109L11.3893 21.2227C11.2408 21.3711 11.1666 21.5469 11.1666 21.75C11.1666 21.9531 11.2408 22.1289 11.3893 22.2773C11.5377 22.4258 11.7135 22.5 11.9166 22.5C12.1198 22.5 12.2955 22.4258 12.444 22.2773L19.9557 14.7773C20.276 14.9258 20.5963 15 20.9166 15Z" fill="#A0A3BD"/>
</g>
<defs>
<clipPath id="clip0_1914_2263">
<rect width="24" height="24" fill="white" transform="translate(0.666626)"/>
</clipPath>
</defs>
</svg>
