<svg width="32" height="33" viewBox="0 0 32 33" fill="none" xmlns="http://www.w3.org/2000/svg">
<path d="M30 13.5H28.58L25.1562 7.50751C24.9813 7.20146 24.7286 6.94708 24.4237 6.77015C24.1188 6.59323 23.7725 6.50003 23.42 6.50001H20.6775L19.1775 2.75751C19.0302 2.38595 18.7745 2.0673 18.4437 1.84303C18.1129 1.61876 17.7222 1.49923 17.3225 1.50001H14.6775C14.2774 1.49873 13.8862 1.61802 13.5548 1.84232C13.2235 2.06663 12.9674 2.38555 12.82 2.75751L11.3225 6.50001H8.58C8.22748 6.50003 7.88123 6.59323 7.57632 6.77015C7.27141 6.94708 7.01869 7.20146 6.84375 7.50751L3.42 13.5H2C1.73478 13.5 1.48043 13.6054 1.29289 13.7929C1.10536 13.9804 1 14.2348 1 14.5C1 14.7652 1.10536 15.0196 1.29289 15.2071C1.48043 15.3947 1.73478 15.5 2 15.5H3V25.5C3 26.0304 3.21071 26.5392 3.58579 26.9142C3.96086 27.2893 4.46957 27.5 5 27.5H8C8.53043 27.5 9.03914 27.2893 9.41421 26.9142C9.78929 26.5392 10 26.0304 10 25.5V24.5H22V25.5C22 26.0304 22.2107 26.5392 22.5858 26.9142C22.9609 27.2893 23.4696 27.5 24 27.5H27C27.5304 27.5 28.0391 27.2893 28.4142 26.9142C28.7893 26.5392 29 26.0304 29 25.5V15.5H30C30.2652 15.5 30.5196 15.3947 30.7071 15.2071C30.8946 15.0196 31 14.7652 31 14.5C31 14.2348 30.8946 13.9804 30.7071 13.7929C30.5196 13.6054 30.2652 13.5 30 13.5ZM10 19.5H7C6.73478 19.5 6.48043 19.3947 6.29289 19.2071C6.10536 19.0196 6 18.7652 6 18.5C6 18.2348 6.10536 17.9804 6.29289 17.7929C6.48043 17.6054 6.73478 17.5 7 17.5H10C10.2652 17.5 10.5196 17.6054 10.7071 17.7929C10.8946 17.9804 11 18.2348 11 18.5C11 18.7652 10.8946 19.0196 10.7071 19.2071C10.5196 19.3947 10.2652 19.5 10 19.5ZM25 19.5H22C21.7348 19.5 21.4804 19.3947 21.2929 19.2071C21.1054 19.0196 21 18.7652 21 18.5C21 18.2348 21.1054 17.9804 21.2929 17.7929C21.4804 17.6054 21.7348 17.5 22 17.5H25C25.2652 17.5 25.5196 17.6054 25.7071 17.7929C25.8946 17.9804 26 18.2348 26 18.5C26 18.7652 25.8946 19.0196 25.7071 19.2071C25.5196 19.3947 25.2652 19.5 25 19.5ZM5.72375 13.5L8.58 8.50001H23.42L26.2763 13.5H5.72375Z" fill="#545454"/>
</svg>
