<svg width="32" height="33" viewBox="0 0 32 33" fill="none" xmlns="http://www.w3.org/2000/svg">
<path fill-rule="evenodd" clip-rule="evenodd" d="M27.9921 11.5001H4.00806C4.04406 7.98541 4.26272 6.02808 5.56272 4.72941C7.12406 3.16675 9.63872 3.16675 14.6667 3.16675H17.3334C22.3614 3.16675 24.8761 3.16675 26.4374 4.72941C27.7374 6.02808 27.9561 7.98541 27.9921 11.5001ZM7.66672 7.83341C7.66672 7.5682 7.77208 7.31384 7.95962 7.12631C8.14715 6.93877 8.40151 6.83341 8.66672 6.83341H12.6667C12.9319 6.83341 13.1863 6.93877 13.3738 7.12631C13.5614 7.31384 13.6667 7.5682 13.6667 7.83341C13.6667 8.09863 13.5614 8.35298 13.3738 8.54052C13.1863 8.72806 12.9319 8.83341 12.6667 8.83341H8.66672C8.40151 8.83341 8.14715 8.72806 7.95962 8.54052C7.77208 8.35298 7.66672 8.09863 7.66672 7.83341ZM19.3334 9.16675C19.687 9.16675 20.0262 9.02627 20.2762 8.77622C20.5262 8.52617 20.6667 8.18704 20.6667 7.83341C20.6667 7.47979 20.5262 7.14065 20.2762 6.89061C20.0262 6.64056 19.687 6.50008 19.3334 6.50008C18.9798 6.50008 18.6406 6.64056 18.3906 6.89061C18.1405 7.14065 18.0001 7.47979 18.0001 7.83341C18.0001 8.18704 18.1405 8.52617 18.3906 8.77622C18.6406 9.02627 18.9798 9.16675 19.3334 9.16675ZM24.6667 7.83341C24.6667 8.18704 24.5262 8.52617 24.2762 8.77622C24.0262 9.02627 23.687 9.16675 23.3334 9.16675C22.9798 9.16675 22.6406 9.02627 22.3906 8.77622C22.1405 8.52617 22.0001 8.18704 22.0001 7.83341C22.0001 7.47979 22.1405 7.14065 22.3906 6.89061C22.6406 6.64056 22.9798 6.50008 23.3334 6.50008C23.687 6.50008 24.0262 6.64056 24.2762 6.89061C24.5262 7.14065 24.6667 7.47979 24.6667 7.83341Z" fill="#545454"/>
<path d="M13 20.5C13 19.7044 13.3161 18.9413 13.8787 18.3787C14.4413 17.8161 15.2044 17.5 16 17.5C16.7956 17.5 17.5587 17.8161 18.1213 18.3787C18.6839 18.9413 19 19.7044 19 20.5C19 21.2956 18.6839 22.0587 18.1213 22.6213C17.5587 23.1839 16.7956 23.5 16 23.5C15.2044 23.5 14.4413 23.1839 13.8787 22.6213C13.3161 22.0587 13 21.2956 13 20.5Z" fill="#545454"/>
<path fill-rule="evenodd" clip-rule="evenodd" d="M4 13.5H28V17.8333C28 22.8613 28 25.376 26.4373 26.9373C26.0283 27.344 25.5387 27.6606 25 27.8667V29.8333C25 30.0986 24.8946 30.3529 24.7071 30.5404C24.5196 30.728 24.2652 30.8333 24 30.8333C23.7348 30.8333 23.4804 30.728 23.2929 30.5404C23.1054 30.3529 23 30.0986 23 29.8333V28.328C21.5733 28.5 19.7413 28.5 17.3333 28.5H14.6667C12.2587 28.5 10.4267 28.5 9 28.328V29.8333C9 30.0986 8.89464 30.3529 8.70711 30.5404C8.51957 30.728 8.26522 30.8333 8 30.8333C7.73478 30.8333 7.48043 30.728 7.29289 30.5404C7.10536 30.3529 7 30.0986 7 29.8333V27.8667C6.4613 27.6606 5.97169 27.344 5.56267 26.9373C4 25.376 4 22.8613 4 17.8333V13.5ZM16 15.5C14.6739 15.5 13.4021 16.0268 12.4645 16.9645C11.5268 17.9021 11 19.1739 11 20.5C11 21.8261 11.5268 23.0979 12.4645 24.0355C13.4021 24.9732 14.6739 25.5 16 25.5C17.3261 25.5 18.5979 24.9732 19.5355 24.0355C20.4732 23.0979 21 21.8261 21 20.5C21 19.1739 20.4732 17.9021 19.5355 16.9645C18.5979 16.0268 17.3261 15.5 16 15.5Z" fill="#545454"/>
</svg>
