<svg width="24" height="24" viewBox="0 0 24 24" fill="none" xmlns="http://www.w3.org/2000/svg">
<path d="M18 8.00171C18 6.41041 17.3679 4.88429 16.2426 3.75907C15.1174 2.63385 13.5913 2.00171 12 2.00171C10.4087 2.00171 8.88258 2.63385 7.75736 3.75907C6.63214 4.88429 6 6.41041 6 8.00171C6 15.0017 3 17.0017 3 17.0017H21C21 17.0017 18 15.0017 18 8.00171Z" stroke="#124CA1" stroke-width="2" stroke-linecap="round" stroke-linejoin="round"/>
<path d="M13.73 21.0017C13.5542 21.3048 13.3019 21.5564 12.9982 21.7312C12.6946 21.9061 12.3504 21.9982 12 21.9982C11.6496 21.9982 11.3054 21.9061 11.0018 21.7312C10.6982 21.5564 10.4458 21.3048 10.27 21.0017" stroke="#124CA1" stroke-width="2" stroke-linecap="round" stroke-linejoin="round"/>
</svg>
