<svg width="30" height="27" viewBox="0 0 30 27" fill="none" xmlns="http://www.w3.org/2000/svg">
<path d="M29 12.5H27.58L24.1562 6.50751C23.9813 6.20146 23.7286 5.94708 23.4237 5.77015C23.1188 5.59323 22.7725 5.50003 22.42 5.50001H19.6775L18.1775 1.75751C18.0302 1.38595 17.7745 1.0673 17.4437 0.843029C17.1129 0.618756 16.7222 0.499234 16.3225 0.50001H13.6775C13.2774 0.498731 12.8862 0.618019 12.5548 0.842325C12.2235 1.06663 11.9674 1.38555 11.82 1.75751L10.3225 5.50001H7.58C7.22748 5.50003 6.88123 5.59323 6.57632 5.77015C6.27141 5.94708 6.01869 6.20146 5.84375 6.50751L2.42 12.5H1C0.734784 12.5 0.48043 12.6054 0.292893 12.7929C0.105357 12.9804 0 13.2348 0 13.5C0 13.7652 0.105357 14.0196 0.292893 14.2071C0.48043 14.3947 0.734784 14.5 1 14.5H2V24.5C2 25.0304 2.21071 25.5392 2.58579 25.9142C2.96086 26.2893 3.46957 26.5 4 26.5H7C7.53043 26.5 8.03914 26.2893 8.41421 25.9142C8.78929 25.5392 9 25.0304 9 24.5V23.5H21V24.5C21 25.0304 21.2107 25.5392 21.5858 25.9142C21.9609 26.2893 22.4696 26.5 23 26.5H26C26.5304 26.5 27.0391 26.2893 27.4142 25.9142C27.7893 25.5392 28 25.0304 28 24.5V14.5H29C29.2652 14.5 29.5196 14.3947 29.7071 14.2071C29.8946 14.0196 30 13.7652 30 13.5C30 13.2348 29.8946 12.9804 29.7071 12.7929C29.5196 12.6054 29.2652 12.5 29 12.5ZM9 18.5H6C5.73478 18.5 5.48043 18.3947 5.29289 18.2071C5.10536 18.0196 5 17.7652 5 17.5C5 17.2348 5.10536 16.9804 5.29289 16.7929C5.48043 16.6054 5.73478 16.5 6 16.5H9C9.26522 16.5 9.51957 16.6054 9.70711 16.7929C9.89464 16.9804 10 17.2348 10 17.5C10 17.7652 9.89464 18.0196 9.70711 18.2071C9.51957 18.3947 9.26522 18.5 9 18.5ZM24 18.5H21C20.7348 18.5 20.4804 18.3947 20.2929 18.2071C20.1054 18.0196 20 17.7652 20 17.5C20 17.2348 20.1054 16.9804 20.2929 16.7929C20.4804 16.6054 20.7348 16.5 21 16.5H24C24.2652 16.5 24.5196 16.6054 24.7071 16.7929C24.8946 16.9804 25 17.2348 25 17.5C25 17.7652 24.8946 18.0196 24.7071 18.2071C24.5196 18.3947 24.2652 18.5 24 18.5ZM4.72375 12.5L7.58 7.50001H22.42L25.2763 12.5H4.72375Z" fill="#545454"/>
</svg>
