<svg width="25" height="24" viewBox="0 0 25 24" fill="none" xmlns="http://www.w3.org/2000/svg">
<path d="M21.6666 7.8601C21.6666 7.4301 21.6106 7.0111 21.5056 6.6141C21.4136 6.2651 20.9836 6.1821 20.7296 6.4371L19.0066 8.1601C18.8425 8.32426 18.6476 8.45447 18.4331 8.54331C18.2186 8.63215 17.9888 8.67787 17.7566 8.67787C17.5245 8.67787 17.2946 8.63215 17.0801 8.54331C16.8657 8.45447 16.6708 8.32426 16.5066 8.1601C16.3425 7.99595 16.2123 7.80107 16.1234 7.5866C16.0346 7.37212 15.9889 7.14225 15.9889 6.9101C15.9889 6.67796 16.0346 6.44808 16.1234 6.23361C16.2123 6.01913 16.3425 5.82426 16.5066 5.6601L18.2296 3.9381C18.4846 3.6831 18.4016 3.2531 18.0526 3.1611C17.197 2.93352 16.2955 2.94399 15.4454 3.19138C14.5953 3.43877 13.8289 3.91368 13.229 4.56484C12.6291 5.21599 12.2185 6.01864 12.0415 6.88613C11.8645 7.75361 11.9278 8.65298 12.2246 9.4871C12.2956 9.6871 12.2556 9.9111 12.1066 10.0601L3.96663 18.2001C3.56663 18.6001 3.56663 19.2491 3.96663 19.6481L5.01863 20.7001C5.41863 21.1001 6.06563 21.1001 6.46563 20.7001L14.6056 12.5601C14.7556 12.4101 14.9796 12.3701 15.1786 12.4411C15.912 12.7018 16.6973 12.7826 17.4685 12.6766C18.2396 12.5706 18.974 12.281 19.6098 11.832C20.2457 11.383 20.7644 10.7879 21.1223 10.0967C21.4802 9.40553 21.6669 8.63848 21.6666 7.8601Z" stroke="#A0A3BD" stroke-width="1.5" stroke-linecap="round" stroke-linejoin="round"/>
</svg>
